<svg
                  width="393"
                  height="429"
                  viewBox="0 0 393 429"
                  fill="none"
                  xmlns="http://www.w3.org/2000/svg"
                >
                  <path
                    d="M1.76953 423.859C2.98692 417.231 6.36062 411.768 10.662 406.929C14.0458 403.122 15.397 397.341 18.6995 393.419C23.2975 387.959 24.1614 379.251 26.7369 372.813C28.4153 368.617 29.6329 364.074 31.4397 359.944C32.3201 357.932 33.8987 354.893 34.1331 353.018C34.8464 347.312 39.205 342.503 41.1872 337.243C43.9818 329.826 47.8791 322.959 51.0203 315.695C55.7257 304.814 60.6302 293.987 65.6416 283.375C70.0785 273.979 73.9513 264.293 78.7238 254.987C83.5575 245.561 90.809 236.132 94.1574 226.086C96.8338 218.057 99.1235 209.143 102.964 201.461C107.18 193.03 111.05 183.749 114.508 174.912C118.05 165.859 122.312 157.51 126.436 148.747C128.277 144.834 130.342 140.87 131.822 136.819C133.962 130.963 138.936 126.024 140.458 120.06C141.811 114.761 145.155 110.475 146.828 105.268C148.51 100.035 151.224 95.2224 152.771 89.8772C155.669 79.8672 163.138 71.2179 166.409 61.4041C167.695 57.5457 169.734 53.9253 171.839 50.4595C173.633 47.5043 174.703 43.7041 176.798 41.0112C177.98 39.4913 179.437 35.1104 180.133 33.102C180.663 31.5681 181.843 29.9158 181.843 28.3138M1 425.398C17.8843 428.614 34.0475 423.859 51.0203 423.859H89.3264C92.5071 423.859 95.4921 425.398 98.732 425.398H111.729C120.17 425.398 128.753 424.899 137.124 425.997C148.978 427.551 161.79 427.707 173.72 427.707H207.238C217.169 427.707 226.924 425.398 236.908 425.398C243.921 425.398 250.648 424.628 257.6 424.628C273.617 424.628 289.787 425.398 305.654 425.398C317.655 425.398 329.658 424.628 341.523 424.628C349.194 424.628 356.634 425.398 364.224 425.398M365.039 425.167C364.713 423.39 364.209 420.676 362.983 419.205C362.387 418.49 360.639 416.599 360.553 415.819C360.444 414.839 359.483 414.267 359.078 413.389C358.566 412.279 358.005 411.095 357.375 410.045C356.134 407.977 354.646 404.993 354.113 402.65C353.488 399.897 351.288 397.319 350.831 394.694C350.538 393.009 349.626 391.377 348.879 389.854C347.658 387.367 346.698 384.57 345.763 381.961C342.774 373.623 338.506 365.695 335.044 357.574C334.32 355.875 333.341 354.075 332.489 352.443C331.459 350.469 331.064 348.27 329.727 346.461C328.174 344.36 327.279 341.078 326.154 338.671C324.703 335.567 323.352 332.319 321.667 329.324C316.091 319.412 311.481 308.876 305.963 298.913C300.136 288.392 294.53 277.497 290.176 266.301C288.131 261.041 286.549 255.43 283.737 250.555C280.295 244.589 277.658 238.128 274.368 232.068C272.565 228.746 270.838 225.352 269.404 221.848C268.239 219.002 267.466 216.02 266.33 213.165C265.379 210.777 264.138 208.52 263.255 206.103C261.688 201.809 260.005 197.605 258.291 193.369C257.175 190.613 256.185 187.498 254.739 184.915C252.561 181.027 251.011 176.782 249.047 172.784C246.151 166.887 243.378 160.962 240.697 154.961C237.52 147.852 233.853 140.897 230.518 133.857C228.078 128.706 225.737 123.455 223.123 118.381C220.574 113.433 218.478 107.834 216.476 102.615C215.733 100.679 214.588 98.8462 213.983 96.8819C213.266 94.5492 211.783 92.5515 211.013 90.3179C209.313 85.3891 206.755 80.629 204.636 75.8604C203.156 72.5308 201.487 68.8464 199.588 65.682C197.998 63.0318 197.017 60.0222 195.455 57.3315C193.698 54.3062 192.988 50.4472 191.176 47.5478C190.215 46.0116 189.114 44.1498 188.475 42.3755C187.829 40.5817 186.79 39.0002 186.294 37.2655C185.392 34.1091 183.256 31.315 181.828 28.4581M181.673 28.6057C183.405 27.8634 184.498 26.3444 185.75 24.9882C187.249 23.3649 188.605 21.6166 190.172 20.0501C190.724 19.4975 191.027 18.6576 191.622 18.148C192.13 17.7125 192.644 16.9991 193.071 16.4613C193.584 15.816 194.43 15.3769 194.909 14.7674C195.384 14.1625 196.116 13.4633 196.789 13.0735C197.358 12.7441 197.835 12.032 198.347 11.6164C199.134 10.9773 199.887 10.3245 200.723 9.71438C201.491 9.15403 202.121 8.53113 202.79 7.86257C203.359 7.29319 203.696 6.55195 204.283 5.9964C205.75 4.60624 206.945 3.20511 208.288 1.86212M364.776 425.657C371.93 418.377 379.083 411.097 386.238 403.818C386.711 403.336 387.256 402.747 387.786 402.252C388.052 402.004 388.312 401.762 388.606 401.551C389.047 401.235 389.368 400.767 389.804 400.442C390.323 400.056 390.763 399.496 391.286 399.147M391.599 398.877C391.011 396.066 389.572 393.976 388.378 391.417C387.578 389.702 386.213 387.961 385.58 386.203C384.925 384.383 383.78 382.721 382.995 380.926C381.725 378.025 381.03 375.184 380.155 372.174C377.917 364.481 374.144 357.466 371.55 349.921C368.891 342.186 363.341 335.469 360.149 327.923C356.663 319.685 352.91 311.577 349.446 303.318C345.443 293.771 341.97 283.932 337.048 274.813C333.236 267.75 330.365 260.413 327.215 253.027C324.516 246.699 321.933 240.337 319.119 234.059C315.523 226.037 311.206 218.366 307.675 210.323C304.16 202.318 299.159 195.066 295.828 186.947C294.001 182.494 291.122 178.453 289.195 174.019C287.883 171.002 286.036 168.075 284.363 165.245C282.444 162.001 281.136 158.431 279.276 155.136C277.596 152.16 276.628 148.952 275.186 145.875C273.431 142.131 271.247 138.437 269.739 134.6C267.203 128.144 263.835 122.193 260.965 115.908C255.756 104.497 252.209 92.4982 247.232 81.0246C243.324 72.0144 240.461 62.4496 235.831 53.7281C231.279 45.1549 227.396 36.2279 222.585 27.8091C219.3 22.0611 216.298 16.1671 212.857 10.5368C210.827 7.21456 208.11 5.22117 208.11 1"
                    stroke="black"
                    strokeLinecap="round"
                  />
                  <path
                    d="M189.328 21.458C188.928 22.258 184.495 26.7913 182.328 28.958L184.328 31.458L186.828 37.458L190.328 44.458L195.328 55.458L200.828 66.458L210.828 87.958L217.328 102.958L222.328 114.958L228.328 127.458L237.328 146.458L244.328 161.958L250.828 176.458L256.328 186.458L261.328 199.958L266.828 213.458L270.328 222.958L277.828 237.958L284.828 250.958L288.328 260.458L294.328 274.958L302.828 292.458L310.828 306.958L316.828 319.458L322.328 329.458L327.328 339.458L332.328 350.958L336.328 358.458L341.328 369.958L347.328 384.458L350.828 392.958L353.828 400.458L356.828 407.958L359.828 413.958L360.828 415.958L363.828 418.958L365.328 423.958L391.328 398.958L388.828 392.958L385.328 386.458L381.828 379.458C380.995 376.291 379.328 369.858 379.328 369.458C379.328 369.058 375.995 361.625 374.328 357.958L370.328 347.958L364.828 337.958L359.828 327.458L353.828 314.958L349.828 305.958L345.328 294.958L341.328 284.958L336.828 275.958L331.828 264.958L328.328 256.958L325.328 250.458L320.328 237.458L317.328 231.458L314.328 224.458L310.828 218.458L307.828 211.958L304.328 203.958L300.828 197.958L297.328 190.458L292.828 181.958L288.328 172.958L286.328 169.958L283.328 164.958L280.328 158.458L275.328 146.958L272.328 140.958L268.828 133.458L265.328 125.958L260.828 116.458L257.828 108.958L251.328 91.958L245.828 77.958L240.328 63.958L234.828 52.458L231.328 45.458L227.828 37.958L224.328 31.458L218.828 21.458L213.328 12.458L207.828 2.95801L207.328 3.45801L203.328 7.95801L198.828 11.458L193.828 16.458C192.495 17.7913 189.728 20.658 189.328 21.458Z"
                    fill="#282423"
                    stroke="#282423"
                  />
                </svg>