<svg
                    width="48"
                    height="48"
                    viewBox="0 0 48 48"
                    fill="none"
                    xmlns="http://www.w3.org/2000/svg"
                  >
                    <path
                      d="M17.5 5C24.404 5 30 10.596 30 17.5C30 18.649 29.832 19.757 29.542 20.814L42.561 33.833C42.842 34.114 43 34.496 43 34.894V41.5C43 42.328 42.329 43 41.5 43H34.5C33.671 43 33 42.328 33 41.5V39H29.5C28.671 39 28 38.328 28 37.5V34H24.5C23.671 34 23 33.328 23 32.5V28.712C21.339 29.529 19.476 30 17.5 30C10.596 30 5 24.404 5 17.5C5 10.596 10.596 5 17.5 5ZM16 19C17.657 19 19 17.657 19 16C19 14.343 17.657 13 16 13C14.343 13 13 14.343 13 16C13 17.657 14.343 19 16 19Z"
                      fill="#B47B48"
                    />
                  </svg>