<svg
                  width="350"
                  height="425"
                  viewBox="0 0 350 425"
                  fill="none"
                  xmlns="http://www.w3.org/2000/svg"
                >
                  <path
                    d="M3 26.5C4.87389 26.5 6.11304 26.5 8 26.5C9.75288 26.5 11.0858 26.7339 12.8097 26.6676C14.5209 26.6018 16.3312 26.5863 18.0156 26.8109C20.5 27 22.0813 26.8109 24.1951 26.8109L40 26.5C42.3362 26.5 44.7904 26.3466 47.1387 26.3466C48.5614 26.3466 50.61 26.5 52 26.5M51.892 27.6182C53.1159 26.4623 54.6329 25.737 55.8002 24.5248C56.8166 23.4693 57.6511 22.2223 58.6823 21.1598L58.6977 21.144C59.679 20.1329 60.6742 19.1076 61.6701 18.1117C62.2998 17.482 62.7165 16.5091 63.4582 15.9991C64.3103 15.4134 65.0489 14.4754 65.7443 13.7055C67.0138 12.3 68.6962 11.1744 69.8185 9.63129C69.986 9.40104 70.3452 9.30082 70.5579 9.08807C70.8056 8.84038 71.0243 8.60259 71.2822 8.36376C71.8582 7.83042 72.6213 7.2492 73.2816 6.83215C74.5758 6.01479 75.7878 4.97137 77.0088 4.05565C77.534 3.66171 78.523 3.0115 78.7818 2.49387M29.8912 1.40741C29.4713 1.54736 29.1676 1.98009 28.8651 2.28261C28.5064 2.64127 27.8177 2.88785 27.3863 3.24081C26.0622 4.32418 24.592 5.26081 23.3422 6.46246C22.7997 6.9841 22.1571 7.37599 21.6145 7.91862C20.9206 8.6125 20.2127 9.25667 19.4416 9.83501C18.8878 10.2503 18.5009 10.9267 17.9401 11.3515C17.3093 11.8295 16.7493 12.4066 16.1746 12.951C14.0945 14.9217 12.8532 17.387 10.5764 19.1982C7.89812 21.3286 5.70081 24.3096 2.62708 25.9368M29.8912 1.67904C30.8086 1.67904 31.709 1.54323 32.6376 1.54323C33.6799 1.54323 34.7697 1.64481 35.8064 1.53568C37.0509 1.40468 38.2008 1.27161 39.4657 1.27161C40.5464 1.27161 41.5766 1 42.6571 1H47.0633C48.0048 1 48.9224 1.13581 49.8549 1.13581C51.2256 1.13581 52.5676 1.54323 53.9291 1.54323C59.2215 1.54323 64.5238 1.40741 69.8185 1.40741C71.7645 1.40741 73.634 1.68212 75.5526 1.33951C76.6854 1.13722 78.8491 1 80 1M2.5 26C2.28351 38.2454 2.22714 52.2651 2.05094 64.5112C2.04341 65.0344 2.05442 65.5265 2.21176 66.03C2.42697 66.7187 2.37257 67.4033 2.37257 68.1206V79.7349C2.37257 87.0268 1.72931 94.1255 1.72931 101.427V123.78C1.72931 132.518 1.08606 141.15 1.08606 149.85V164.216C1.08606 167.649 1.32496 170.973 1.40769 174.365C1.487 177.616 2.05094 181.102 2.05094 184.407C2.05094 188.243 3.01582 192.167 3.01582 195.985C3.01582 196.676 3.21501 197.773 2.94435 198.415C2.76231 198.848 2.40035 199.345 2.37257 199.845C2.29033 201.325 2.38314 202.643 1.80079 204.026C1.09238 205.709 1.72931 208.925 1.72931 210.78C1.72931 215.792 2.6942 220.26 2.6942 225.253M2.63354 225.36C2.26105 226.501 2.19585 227.621 1.94641 228.744C1.78054 229.49 1.9411 230.667 1.58341 231.311C1.02717 232.312 1.23336 234.127 1.23336 235.278V246.363C1.23336 250.746 1.93345 255.015 1.93345 259.431C1.93345 263.598 2.44574 267.844 1.92048 272.046C1.38154 276.357 1.23336 280.904 1.23336 285.282C1.23336 289.975 1 294.628 1 299.336C1 304.081 1.21949 308.744 1.46672 313.441C1.59586 315.895 1.70009 318.326 1.70009 320.805C1.70009 323.002 2.13617 325.671 1.64823 327.806C1.24065 329.589 1.46672 331.581 1.46672 333.407C1.46672 336.355 1.23336 339.401 1.23336 342.391C1.23336 344.513 1.46672 346.575 1.46672 348.692C1.46672 349.815 1.37072 350.983 1.58341 352.089C1.84847 353.467 1.23913 355.369 1.81677 356.639C2.26245 357.62 2.16681 358.729 2.16681 359.777C2.16681 360.791 2.45315 361.293 2.62057 362.214C2.92552 363.891 2.63354 365.891 2.63354 367.594V388.014C2.63354 390.62 2.16681 393.138 2.16681 395.766C2.16681 397.474 2.42649 399.459 2.11495 401.134C1.33638 405.319 1.70009 409.876 1.70009 414.15V423.485M51.892 26.708C51.5249 48.0321 50.4592 71.6746 50.4592 93.0048C50.4592 93.93 50.4685 94.7988 50.6267 95.709C50.9538 97.5894 50.6746 99.7131 50.6746 101.62V108.129C50.6746 113.458 50.1988 119.033 50.9019 124.306C51.494 128.747 52.1822 133.054 52.1822 137.588C52.1822 141.144 51.1054 144.375 51.1054 147.878M51.1054 148.524V185.246C51.1054 186.167 51.5362 186.932 51.5362 187.89V205.827C51.5362 208.346 51.3208 210.797 51.3208 213.305C51.3208 215.44 51.5362 217.483 51.5362 219.599V233.598C51.5362 237.562 51.2626 241.682 51.1054 245.612C51.0672 246.566 50.6747 247.43 50.6747 248.34C50.6747 249.556 50.8529 250.906 50.5071 252.073C50.2223 253.034 50.2439 254.686 50.2439 255.674V259.396C50.2439 264.369 50.89 269.304 50.89 274.305V290.554C50.89 295.837 51.1054 301.175 51.1054 306.492V319.318C51.1054 320.384 50.8649 321.891 51.2729 322.86C51.4713 323.331 51.1054 324.286 51.1054 324.798C51.1054 325.389 50.9669 325.793 50.9669 326.318V333.581C50.9669 335.626 51.5362 337.682 51.5362 339.779C51.5362 343.628 50.8916 347.364 50.7515 351.146C50.7041 352.427 51.0815 353.719 50.7823 354.975C50.4345 356.436 50.4593 357.88 50.4593 359.379V376.01C50.4593 378.151 51 380.361 51 382.5M79.4222 3.28635C79.4222 17.3914 78.6517 31.1746 78.6517 45.2766V66.0792C78.6517 72.6303 77.1108 79.3267 77.1108 85.8972C77.1108 100.257 76.7256 114.693 76.7256 128.958C76.7256 136.821 77.8813 144.346 77.8813 152.2C77.8813 159.688 77.496 167.335 77.496 174.715M77.1779 175.317C77.1779 183.708 77.2009 192.04 77.6173 200.368C77.7113 202.247 78.0568 204.204 78.0568 206.081C78.0568 208.04 78.0166 210.708 78.5451 212.624C78.992 214.244 78.5999 216.046 78.7282 217.715C78.847 219.258 78.9358 220.765 78.9358 222.329C78.9358 223.61 79.0489 224.932 78.7649 226.175C78.4585 227.515 78.8688 229.014 78.6672 230.374C77.7563 236.523 77.8371 242.749 77.8371 248.979C77.8371 254.997 78.0568 261.01 78.0568 267.046C78.0568 272.349 78.716 277.638 78.716 282.99C78.716 285.686 78.2766 288.316 78.2766 291.034V309.676C78.2766 310.634 78.4963 311.552 78.4963 312.435C78.4963 313.103 78.1292 315.511 78.9358 315.511M78.716 316.61C78.716 319.834 78.8132 323.043 78.9358 326.229C79.0596 329.449 79.3752 332.654 79.3752 335.947C79.3752 337.7 79.3563 339.795 78.9358 341.477C78.6709 342.536 78.7111 343.584 78.4475 344.639C78.228 345.517 78.0568 346.702 78.0568 347.593C78.0568 349.534 77.8371 351.459 77.8371 353.416C77.8371 354.626 77.1031 356.6 77.8371 357.701M78.0568 357.261C77.2921 357.644 76.5175 359.02 75.8594 359.678C74.8466 360.691 73.8222 361.962 73.0028 363.145C71.4225 365.428 68.4984 366.536 66.7402 368.7C66.1682 369.404 65.3455 369.809 64.7504 370.458C64.2256 371.03 63.5581 371.833 62.8948 372.204C62.1254 372.634 61.3821 373.594 60.7463 374.23C60.1139 374.862 59.4051 375.418 58.8419 376.134C57.8242 377.43 55.9262 378.213 55.033 379.675C54.3074 380.862 52.9392 381.362 52 382.5C70.9186 382.695 91.536 383.202 110.455 383.202C114.871 383.202 119.148 382.378 123.529 382.279C133.429 382.054 143.301 382.74 153.162 382.74C164.347 382.74 175.544 384.586 186.794 384.586C197.222 384.586 207.575 383.663 217.939 383.663H313.016C314.69 383.663 320.133 384.194 320.86 382.74M78.6176 357.824C88.3796 357.824 97.8884 356.439 107.687 356.439H123.734C129.337 356.439 134.781 357.362 140.345 357.362C154.148 357.362 167.862 358.747 181.718 358.747H244.265C248.366 358.747 253.246 359.149 257.185 358.054C260.874 357.03 265.196 357.362 269.028 357.362H285.588C291.723 357.362 297.853 358.285 304.019 358.285H348.084M321.099 382.635C322.478 381.584 323.959 380.815 325.151 379.622C326.229 378.545 327.367 377.512 328.461 376.418C329.957 374.922 331.508 373.56 332.747 371.856C333.612 370.668 335.36 369.975 336.142 368.801C337.031 367.468 338.832 366.664 339.962 365.491C340.854 364.564 341.947 363.759 342.667 362.679C343.008 362.168 343.647 361.52 344.248 361.289C344.521 361.184 345.828 360.546 345.924 360.377C346.222 359.856 347.012 359.562 347.452 359.146C347.76 358.855 348.246 358.367 348.598 358.191M320 383.663C320.287 384.543 320.108 386.234 320.144 387.176C320.169 387.822 319.949 388.726 320.186 389.319C320.461 390.004 320.335 390.876 320.335 391.61C320.335 392.408 320.526 393.221 320.526 394.05C320.526 397.663 320.908 401.133 320.908 404.744V419.109C320.908 420.23 321.29 421.153 321.29 422.165M321.672 421.974C323.914 419.799 326.649 418.077 328.928 415.863C330.439 414.395 332.305 413.382 333.596 411.704C334.592 410.41 336.146 409.465 337.405 408.405C338.632 407.371 340.078 406.269 341.055 404.967C341.904 403.835 343.149 403.17 344.121 402.198C345.665 400.654 348.415 398.984 349.361 397.09M348.598 358.285C348.598 361.551 348.905 365.855 348.98 369.14C349.06 372.666 349.361 376.207 349.361 379.77V396.766M2.086 424.376C17.9669 424.177 34.045 423.618 49.9025 423.618C51.8508 423.618 53.8076 423.365 55.69 423.365C61.9025 423.365 67.979 424.124 74.1901 424.124C79.7317 424.124 85.296 424.273 90.836 424.124C97.3256 423.948 103.798 423.365 110.305 423.365H146.617C158.353 423.365 170.137 424.124 181.862 424.124C193.81 424.124 205.628 423.112 217.569 423.112C229.696 423.112 241.793 423.365 253.924 423.365H275.163C280.503 423.365 285.84 422.859 291.148 422.859C297.708 422.859 304.28 422.606 310.815 422.606C314.318 422.606 317.636 422.354 321.181 422.354"
                    stroke="#282423"
                    strokeLinecap="round"
                  />
                  <path
                    d="M348 359L320.627 383.798L322 421L336 409.5L349 397L348.627 378L348 359Z"
                    fill="#282423"
                    stroke="#282423"
                    strokeLinejoin="bevel"
                  />
                  <path
                    d="M78.6271 3.79834L52.6271 28.2983L51.6271 68.7983L51 93V119L52.6271 137.298L51.6271 147.798V174.798L52 188V213L52.6271 234.798L50.6271 256.298L51.6271 272.298V298.5V328L52 345.5L50.6271 355.798L51.5 382.5L77.6271 356.798V349.798L78.6271 339.298V318.298L77.6271 294.798V270.798V242.298V210.298L76.6271 171.298L76.1271 121.798V78.7983L77.1271 67.2983V45.7983L78.6271 3.79834Z"
                    fill="#282423"
                  />
                  <path
                    d="M52.6271 28.2983L52.2842 27.9344L52.1324 28.0775L52.1272 28.286L52.6271 28.2983ZM78.6271 3.79834L79.1268 3.81619L79.1702 2.59953L78.2842 3.43445L78.6271 3.79834ZM77.1271 45.7983L76.6274 45.7805L76.6271 45.7894V45.7983H77.1271ZM77.1271 67.2983L77.6252 67.3417L77.6271 67.32V67.2983H77.1271ZM76.1271 78.7983L75.629 78.755L75.6271 78.7766V78.7983H76.1271ZM76.1271 121.798H75.6271L75.6271 121.803L76.1271 121.798ZM76.6271 171.298L76.127 171.303L76.1272 171.311L76.6271 171.298ZM77.6271 210.298H78.1272L78.1269 210.286L77.6271 210.298ZM77.6271 294.798H77.1271V294.809L77.1275 294.82L77.6271 294.798ZM78.6271 318.298H79.1271V318.288L79.1266 318.277L78.6271 318.298ZM78.6271 339.298L79.1248 339.346L79.1271 339.322V339.298H78.6271ZM77.6271 349.798L77.1293 349.751L77.1271 349.775V349.798H77.6271ZM77.6271 356.798L77.9777 357.155L78.1271 357.008V356.798H77.6271ZM51.5 382.5L51.0003 382.516L51.8506 382.856L51.5 382.5ZM50.6271 355.798L50.1315 355.732L50.126 355.773L50.1273 355.815L50.6271 355.798ZM52 345.5L52.4956 345.566L52.5007 345.528L52.4999 345.489L52 345.5ZM51.6271 328H51.127L51.1272 328.011L51.6271 328ZM51.6271 272.298H52.1271V272.283L52.1261 272.267L51.6271 272.298ZM50.6271 256.298L50.1292 256.252L50.1256 256.291L50.128 256.33L50.6271 256.298ZM52.6271 234.798L53.1249 234.845L53.1277 234.814L53.1269 234.784L52.6271 234.798ZM52 213H51.5V213.007L51.5002 213.014L52 213ZM52 188H52.5002L52.4998 187.986L52 188ZM51.6271 174.798H51.1269L51.1273 174.812L51.6271 174.798ZM51.6271 147.798L51.1293 147.751L51.1271 147.775V147.798H51.6271ZM52.6271 137.298L53.1248 137.346L53.1292 137.3L53.1251 137.254L52.6271 137.298ZM51 119H50.5V119.022L50.502 119.044L51 119ZM51 93L50.5 92.987V93H51ZM51.6271 68.7983L52.1269 68.8113L52.1269 68.8107L51.6271 68.7983ZM52.97 28.6622L78.97 4.16223L78.2842 3.43445L52.2842 27.9344L52.97 28.6622ZM78.1274 3.78049L76.6274 45.7805L77.6268 45.8162L79.1268 3.81619L78.1274 3.78049ZM76.6271 45.7983V67.2983H77.6271V45.7983H76.6271ZM76.629 67.255L75.629 78.755L76.6252 78.8417L77.6252 67.3417L76.629 67.255ZM75.6271 78.7983V121.798H76.6271V78.7983H75.6271ZM75.6271 121.803L76.1271 171.303L77.1271 171.293L76.6271 121.793L75.6271 121.803ZM76.1272 171.311L77.1272 210.311L78.1269 210.286L77.1269 171.286L76.1272 171.311ZM77.1271 210.298V242.298H78.1271V210.298H77.1271ZM77.1271 242.298V270.798H78.1271V242.298H77.1271ZM77.1271 270.798V294.798H78.1271V270.798H77.1271ZM77.1275 294.82L78.1275 318.32L79.1266 318.277L78.1266 294.777L77.1275 294.82ZM78.1271 318.298V339.298H79.1271V318.298H78.1271ZM78.1293 339.251L77.1293 349.751L78.1248 349.846L79.1248 339.346L78.1293 339.251ZM77.1271 349.798V356.798H78.1271V349.798H77.1271ZM77.2764 356.442L51.1494 382.144L51.8506 382.856L77.9777 357.155L77.2764 356.442ZM51.9997 382.484L51.1268 355.782L50.1273 355.815L51.0003 382.516L51.9997 382.484ZM51.1227 355.864L52.4956 345.566L51.5044 345.434L50.1315 355.732L51.1227 355.864ZM52.4999 345.489L52.127 327.989L51.1272 328.011L51.5001 345.511L52.4999 345.489ZM52.1271 328V298.5H51.1271V328H52.1271ZM52.1271 298.5V272.298H51.1271V298.5H52.1271ZM52.1261 272.267L51.1261 256.267L50.128 256.33L51.128 272.33L52.1261 272.267ZM51.1249 256.345L53.1249 234.845L52.1292 234.752L50.1292 256.252L51.1249 256.345ZM53.1269 234.784L52.4998 212.986L51.5002 213.014L52.1273 234.813L53.1269 234.784ZM52.5 213V188H51.5V213H52.5ZM52.4998 187.986L52.1269 174.784L51.1273 174.812L51.5002 188.014L52.4998 187.986ZM52.1271 174.798V147.798H51.1271V174.798H52.1271ZM52.1248 147.846L53.1248 137.346L52.1293 137.251L51.1293 147.751L52.1248 147.846ZM53.1251 137.254L51.498 118.956L50.502 119.044L52.129 137.343L53.1251 137.254ZM51.5 119V93H50.5V119H51.5ZM51.4998 93.0129L52.1269 68.8113L51.1272 68.7854L50.5002 92.9871L51.4998 93.0129ZM52.1269 68.8107L53.1269 28.3107L52.1272 28.286L51.1272 68.786L52.1269 68.8107Z"
                    fill="#282423"
                  />
                </svg>