<svg width="120" height="31" viewBox="0 0 120 31" fill="none" xmlns="http://www.w3.org/2000/svg">
<path d="M13.003 0.459259C12.9579 0.367405 12.8224 0.367405 12.5515 0.367405H12.1452C11.9194 0.367405 11.8743 0.367405 11.8291 0.459259L10.4747 3.99555L8.53323 8.8637L3.61195 21.4015C3.3862 21.9985 3.16046 22.6415 2.84441 23.2844V23.3304L0 30.5867C0.225747 30.5867 0.406344 30.5867 0.586942 30.5867L5.86942 17.0844H16.3441L16.8859 18.4622L16.931 18.5541L17.4728 19.7941C17.5631 19.9778 17.6534 20.1615 17.6986 20.2993L17.4728 19.7941L17.8792 20.7126C18.1952 21.4474 18.4661 22.1822 18.737 22.8252L18.7821 22.917L22.0329 30.6326C22.8456 30.5867 23.5228 30.6326 23.7937 30.6326C24.0646 30.6326 24.6967 30.5867 25.4191 30.6326L13.003 0.459259ZM6.00487 16.717L9.93286 6.61333L10.9262 4.17926L16.1635 16.717H6.00487Z" fill="#282423"/>
<path d="M38.9286 0.459259C38.8835 0.367405 38.748 0.367405 38.4771 0.367405H38.0708C37.8451 0.367405 37.7999 0.367405 37.7548 0.459259L36.4003 3.99555L34.4589 8.8637L29.5376 21.4015C29.3118 21.9985 29.0861 22.6415 28.77 23.2844V23.3304L25.9256 30.5867C26.1514 30.5867 26.332 30.5867 26.5126 30.5867L31.795 17.0844H42.2697L42.8115 18.4622L42.8566 18.5541L43.3984 19.7941C43.4887 19.9778 43.579 20.1615 43.6242 20.2993L43.3984 19.7941L43.8048 20.7126C44.1208 21.4474 44.3917 22.1822 44.6626 22.8252L44.7078 22.917L47.9585 30.6326C48.7712 30.5867 49.4485 30.6326 49.7193 30.6326C49.9902 30.6326 50.6223 30.5867 51.3447 30.6326L38.9286 0.459259ZM31.9305 16.717L35.8585 6.61333L36.8518 4.17926L42.0891 16.717H31.9305Z" fill="#282423"/>
<path d="M65.4864 29.9437C65.3961 29.9437 65.3509 29.9896 65.2606 29.9896C64.9897 30.0356 64.7188 30.0356 64.4479 30.0815C64.2222 30.0815 64.0867 30.0815 64.0867 30.0815C63.0934 30.0815 59.6621 29.9896 57.4949 29.9437V0.459259H54.2893V30.5867H73.1166V25.397C71.0397 28.7037 67.4278 29.6681 65.4864 29.9437Z" fill="#282423"/>
<path d="M67.7156 0.459259V0.872592H78.1903V30.5867H81.441V0.872592H91.9608V0.459259H67.7156Z" fill="#282423"/>
<path d="M104.965 0C96.9287 0 89.8402 6.42963 89.8402 15.523C89.8402 24.4326 96.7029 31 104.74 31C112.776 31 120 24.4326 120 15.523C120 6.56741 113.002 0 104.965 0ZM104.559 30.5867C97.6059 30.5867 93.6779 24.4326 93.6779 15.523C93.6779 6.56741 98.1477 0.459259 105.146 0.459259C112.099 0.459259 116.207 6.56741 116.207 15.523C116.207 24.4326 111.512 30.5867 104.559 30.5867Z" fill="#282423"/>
</svg>
