<svg
                  width="409"
                  height="425"
                  viewBox="0 0 409 425"
                  fill="none"
                  xmlns="http://www.w3.org/2000/svg"
                >
                  <g opacity="0.3">
                    <path
                      d="M52.952 98.4683L52.9508 98.4706C37.842 129.348 30.0483 166.498 29.5493 209.904C29.0548 252.925 36.187 290.247 50.9651 321.854C65.7424 353.46 87.0118 378.166 114.773 395.958L114.777 395.961C142.551 413.37 176.232 422.29 215.798 422.744C254.204 423.186 287.5 415.035 315.665 398.27L315.666 398.269C344.216 381.125 366.435 356.92 382.323 325.667C398.213 294.411 406.397 257.07 406.896 213.66C407.39 170.639 400.062 133.506 384.89 102.279C370.112 70.673 348.645 46.1579 320.49 28.7494C292.333 11.3388 259.041 2.4221 220.634 1.98062C181.069 1.52583 146.999 9.66692 118.447 26.4269L118.444 26.4285C90.2831 43.1911 68.4523 67.2098 52.952 98.4683ZM317.469 336.578L317.468 336.578C293.236 365.586 259.534 379.859 216.296 379.362C171.115 378.842 137.179 363.788 114.399 334.253C91.6003 304.3 80.4721 263.067 81.0764 210.496C81.6852 157.535 93.7569 116.767 117.224 88.1232L117.226 88.1207C140.679 59.1154 174.953 44.844 220.136 45.3634C263.762 45.8648 297.32 60.9117 320.878 90.4679L320.88 90.4704C344.454 119.654 355.971 160.691 355.362 213.649C354.758 266.215 342.106 307.171 317.469 336.578Z"
                      fill="#282423"
                      stroke="#282423"
                    />
                    <path
                      d="M25.3187 98.1506L25.3175 98.153C10.2087 129.03 2.41496 166.18 1.91603 209.586C1.42151 252.607 8.55372 289.929 23.3318 321.536C38.1091 353.142 59.3785 377.848 87.1397 395.64L87.1439 395.643C114.918 413.052 148.599 421.972 188.164 422.427C226.571 422.868 259.867 414.717 288.031 397.952L288.033 397.951C316.582 380.808 338.802 356.602 354.689 325.35C370.579 294.093 378.764 256.752 379.263 213.343C379.757 170.322 372.429 133.19 357.258 101.963C342.48 70.3564 321.012 45.8406 292.857 28.4317C264.7 11.0212 231.408 2.10447 193.001 1.663C153.436 1.2082 119.366 9.34929 90.8134 26.1093L90.8108 26.1109C62.6498 42.8734 40.819 66.8922 25.3187 98.1506ZM289.835 336.26L289.835 336.26C265.602 365.268 231.901 379.541 188.663 379.044C143.481 378.525 109.544 363.47 86.7646 333.933C63.9667 303.981 52.8388 262.749 53.4431 210.178C54.0519 157.218 66.1236 116.449 89.591 87.8056L89.593 87.8031C113.046 58.7978 147.32 44.5264 192.502 45.0457C236.129 45.5472 269.686 60.5941 293.245 90.1503L293.247 90.1528C316.821 119.337 328.338 160.374 327.729 213.331C327.125 265.898 314.473 306.853 289.835 336.26Z"
                      fill="#D4D7D6"
                      stroke="#282423"
                    />
                  </g>
                  <path
                    d="M204.945 45.6418C202.379 45.8777 199.806 46.0859 197.248 46.3968C196.955 46.4323 196.622 46.5113 196.316 46.5243C196.192 46.5295 196.067 46.5243 195.943 46.5243C195.725 46.5243 195.428 46.572 195.218 46.6321C194.525 46.8301 193.779 46.5787 193.08 46.7057C191.955 46.9102 190.901 47.2672 189.746 47.3185C186.846 47.4474 184.144 48.0645 181.363 48.8187C180.657 49.0102 179.948 49.0443 179.245 49.1913C178.904 49.2627 178.429 49.294 178.117 49.4365C177.861 49.5537 177.377 49.7012 177.097 49.7012C176.559 49.7012 175.752 49.9181 175.249 50.1032C174.877 50.2402 174.516 50.3908 174.146 50.5347C173.838 50.6545 173.489 50.6292 173.215 50.8484C172.781 51.1954 172.077 51.2406 171.587 51.4858C171.387 51.586 171.149 51.5669 170.969 51.6623C170.788 51.7579 170.575 51.9588 170.351 51.9908C170.116 52.0244 169.956 52.1401 169.739 52.1673C169.506 52.1963 169.337 52.3487 169.116 52.3487C168.769 52.3487 168.259 52.5216 167.949 52.633C167.407 52.8281 166.683 53.0375 166.115 53.0547C165.758 53.0655 165.325 53.3419 164.973 53.4518C164.456 53.6133 163.989 53.8048 163.512 54.0695C163.102 54.2972 162.45 54.3568 162.076 54.6627C161.684 54.983 161.015 55.1754 160.556 55.3687C160.13 55.548 159.72 55.7447 159.32 55.9669C158.361 56.4999 157.283 56.6219 156.339 57.2023C155.996 57.4139 155.521 57.4725 155.153 57.6828C154.727 57.926 154.15 58.1248 153.672 58.2613C153.269 58.3765 152.935 58.6401 152.564 58.7075C152.426 58.7327 152.089 58.8943 151.996 59.0114C151.82 59.2304 151.218 59.3715 150.956 59.5458C150.644 59.754 150.341 59.9321 150.015 60.0949C149.699 60.2529 149.35 60.7466 149.039 60.8156C148.694 60.8923 148.301 61.2579 147.985 61.4383C147.819 61.5331 147.205 61.841 147.142 61.9678"
                    stroke="#282423"
                    strokeLinecap="round"
                  />
                  <path
                    d="M147.056 62.0776C145.285 62.8303 144.145 64.1375 142.297 64.8767C140.716 65.5092 139.083 66.8849 137.928 67.9246C137.201 68.5783 136.675 69.364 135.929 70.1094C135.643 70.396 135.141 70.589 134.817 70.8947C134.497 71.1978 133.999 71.5996 133.605 71.7966C133.227 71.9856 132.844 72.3261 132.438 72.442C132.164 72.5203 131.336 73.1013 131.132 73.305C130.776 73.6608 130.313 73.9321 129.911 74.2536C129.673 74.4444 129.309 75.1991 129.002 75.2333C128.813 75.2542 128.223 75.7849 128.131 75.933C127.907 76.2915 127.247 76.901 126.902 77.1226C126.094 77.6423 125.827 78.8221 125.005 79.2919C124.626 79.5085 124.412 80.1031 124.033 80.2716C123.846 80.3547 123.15 81.0417 123.124 81.2513C123.09 81.5207 122.355 81.8061 122.292 82.0288C122.25 82.1761 122.157 82.3988 122.004 82.4798C121.704 82.6383 121.825 82.6896 121.584 82.9307C121.263 83.2521 120.805 83.5161 120.573 83.9104C120.479 84.07 120.25 84.1401 120.122 84.2681C119.963 84.4277 119.989 84.7668 119.835 84.8901C119.536 85.1287 119.51 85.6265 119.236 85.9008C118.978 86.1584 118.539 86.6068 118.365 86.9116C118.188 87.2219 117.721 87.6332 117.455 87.8991C117.295 88.0591 116.714 88.5786 116.686 88.8088C116.675 88.8911 116.036 89.5801 115.916 89.7262C115.434 90.3149 115.346 90.7748 114.726 91.188"
                    stroke="#282423"
                    strokeLinecap="round"
                  />
                  <path
                    d="M114.726 91.1886C113.294 93.1584 112.033 95.0696 110.776 97.2066C110.057 98.43 108.989 99.3512 108.218 100.55C107.86 101.108 107.421 101.747 106.951 102.245C106.357 102.873 105.527 103.864 105.147 104.624C104.845 105.229 104.432 105.973 104.012 106.514C103.509 107.16 103.354 108.171 102.83 108.761C102.293 109.364 102.084 110.39 101.633 111.093C101.02 112.046 100.574 113.112 99.9687 114.063C99.1575 115.338 98.8326 117.001 98.2426 118.402C98.047 118.866 97.9068 119.203 97.7954 119.704C97.2954 120.704 97.2954 120.204 96.7954 121.704"
                    stroke="#282423"
                    strokeLinecap="round"
                  />
                  <path
                    d="M204.577 45.4236C203.646 45.2419 202.561 45.1922 201.638 45.1437C200.756 45.0972 199.881 45.0037 198.979 45.0037C197.252 45.0037 195.526 45.0037 193.8 45.0037C191.954 45.0037 190.186 45.2836 188.412 45.2836C186.429 45.2836 184.564 45.5635 182.604 45.5635C181.381 45.5635 180.157 45.5635 178.934 45.5635C177.845 45.5635 176.849 45.8434 175.746 45.8434C173.733 45.8434 171.77 45.8984 169.806 46.2555C167.988 46.5861 166.254 46.7521 164.425 46.9553C163.576 47.0496 162.459 47.0076 161.665 47.3129C161.124 47.5213 160.505 47.5229 159.931 47.5229C159.371 47.5229 158.956 47.7823 158.423 47.8028C158.026 47.818 157.549 48.0374 157.125 48.0905C156.646 48.1502 156.217 48.3341 155.733 48.3626C155.331 48.3862 154.937 48.6425 154.473 48.6425C154.061 48.6425 153.377 48.903 152.996 49.0935C152.695 49.2441 152.371 49.2023 152.024 49.2023C151.639 49.2023 151.368 49.4822 150.974 49.4822C150.571 49.4822 149.968 49.7229 149.575 49.8321C149.069 49.9726 148.521 49.9577 148.028 50.112C146.131 50.7047 144.219 51.0369 142.313 51.5815C141.356 51.855 140.309 52.1516 139.358 52.4912C138.517 52.7917 137.649 53.1708 136.761 53.432C135.594 53.7753 134.288 54.3963 133.2 54.9404C132.629 55.226 131.93 55.5104 131.311 55.648C130.898 55.7396 130.537 56.1538 130.121 56.2C129.724 56.2442 129.322 56.6396 128.932 56.7598C128.441 56.9109 128.042 57.1657 127.571 57.3507C126.789 57.6579 126.057 58.0997 125.293 58.4393C124.884 58.6209 124.272 58.9703 123.963 59.279C123.637 59.6055 123.15 59.6921 122.851 60.041C122.719 60.1957 121.933 60.6553 121.724 60.6785C121.421 60.7122 121.085 61.1272 120.752 61.2383C120.108 61.4531 119.252 62.1426 118.715 62.5601C118.439 62.775 117.96 62.9012 117.774 63.1977C117.572 63.5207 116.887 63.4949 116.686 63.8975"
                    stroke="#282423"
                    strokeLinecap="round"
                  />
                  <path
                    d="M116.545 63.8977C114.789 64.6441 113.383 66.2289 111.647 67.1478C110.808 67.5918 110.053 68.4694 109.159 68.8272C108.283 69.1778 107.711 70.0821 106.889 70.5844C106.101 71.0658 105.447 71.9174 104.789 72.5749C104.344 73.0197 103.965 73.5794 103.499 73.8966C103.265 74.0557 103.326 74.3943 103.04 74.3943C102.848 74.3943 102.754 74.5215 102.659 74.6742C102.486 74.9514 102.058 75.1042 101.819 75.3428C101.558 75.6035 101.173 75.9272 100.871 76.1048C99.9918 76.6217 99.021 77.5034 98.2814 78.243C97.5754 78.9491 96.8072 79.5286 96.1744 80.3423C95.3874 81.3541 94.0776 82.1806 93.453 83.2735C93.2145 83.691 92.4585 83.9801 92.1313 84.401C91.8515 84.7606 91.5156 85.2236 91.1438 85.5128C90.2141 86.2359 89.3474 87.3521 88.7024 88.3197C87.9465 89.4535 87.4933 90.8838 86.6575 91.9585C86.1053 92.6684 85.426 93.6448 85.0558 94.4776C84.8451 94.9516 84.3231 95.4094 83.9984 95.8227C83.5251 96.425 83.1723 97.1767 82.6766 97.7432C81.849 98.6891 81.2799 99.5803 80.7172 100.706"
                    stroke="#282423"
                    strokeLinecap="round"
                  />
                  <path
                    d="M80.7178 100.705C80.2876 101.061 79.9303 101.358 79.7381 101.886C79.6893 102.021 79.5059 102.312 79.3804 102.384C79.2193 102.476 78.6919 103.416 78.6185 103.636C78.5274 103.909 78.1101 104.616 77.9187 104.841C77.7338 105.059 77.2415 105.772 77.2189 106.054C77.1868 106.455 76.7184 106.819 76.6669 107.282C76.6189 107.714 76.3392 108.004 76.1615 108.41C75.673 109.526 74.6945 110.63 74.4276 111.831C74.2405 112.673 73.5209 113.374 73.1603 114.14C72.7315 115.051 72.3922 115.934 71.9707 116.862C71.5144 117.865 71.1623 118.898 70.6722 119.878C70.3485 120.526 70.2739 121.667 69.7703 122.226C69.584 122.433 69.4304 122.949 69.3893 123.237C69.3109 123.786 68.9155 124.156 68.8139 124.715C68.6729 125.49 67.8836 126.336 67.4844 126.985C67.0718 127.655 67.0471 128.475 66.6524 129.185C66.4358 129.575 66.1112 130.273 66.0304 130.717C65.9583 131.114 65.4628 131.361 65.4628 131.837C65.4628 132.535 65.5429 133.244 65.0741 133.765C64.6062 134.285 64.3432 135.321 64.3432 136.035C64.3432 136.735 63.5887 137.628 63.5035 138.352C63.4046 139.193 62.8627 139.936 62.6637 140.731"
                    stroke="#282423"
                    strokeLinecap="round"
                  />
                  <path
                    d="M62.6841 141.019C61.4924 145.835 60.3434 150.667 59.0441 155.455C58.986 155.669 58.7458 156.285 58.7132 156.655C58.6977 156.831 58.6207 156.959 58.5615 157.124C58.4586 157.409 58.465 157.653 58.465 157.958C58.465 158.659 58.147 159.102 57.9755 159.702C57.7998 160.317 57.7451 160.881 57.4999 161.494C57.3699 161.819 57.4736 162.211 57.3482 162.556C57.2102 162.936 56.9878 163.448 56.9759 163.852C56.9544 164.585 56.9729 165.482 56.6588 166.155C56.4822 166.533 56.4856 166.972 56.3279 167.327C56.2066 167.6 55.9832 167.963 55.9832 168.264C55.9832 169.53 55.1146 170.678 55.1146 171.918"
                    stroke="#282423"
                    strokeLinecap="round"
                  />
                  <path
                    d="M54.9907 171.794C54.9907 172.331 54.9907 172.869 54.9907 173.407C54.9907 173.914 54.8539 174.24 54.7494 174.71C54.5322 175.687 54.5592 176.759 54.2738 177.722C54.0277 178.553 54.2462 179.747 54.2462 180.611C54.2462 181.64 53.998 182.658 53.998 183.706C53.998 184.837 53.5016 185.993 53.5016 187.119C53.5016 188.138 53.2535 189.113 53.2535 190.159C53.2535 192.195 53.1294 194.271 53.1294 196.336C53.1294 197.254 53.2535 198.159 53.2535 199.093C53.2535 200.209 53.0053 201.255 53.0053 202.347C53.0053 202.854 52.7571 203.302 52.7571 203.809C52.7571 204.345 52.8077 204.838 52.8881 205.36C53.0467 206.391 53.0053 207.443 53.0053 208.497C53.0053 209.01 53.2535 209.403 53.2535 209.889C53.2535 210.282 53.2535 210.675 53.2535 211.068C53.2535 211.537 53.1591 212.102 53.2603 212.557C53.3616 213.013 53.5016 213.376 53.5016 213.86C53.5016 215.768 53.2535 217.553 53.2535 219.444"
                    stroke="#282423"
                    strokeLinecap="round"
                  />
                  <path
                    d="M53.155 219.453C53.3072 221.59 53.5951 223.961 53.5951 226.11C53.5951 226.728 53.5771 227.707 53.7113 228.31C54.0301 229.745 53.9252 231.281 53.9252 232.766C53.9252 234.049 53.8016 235.415 54.0291 236.666C54.1414 237.284 54.0934 237.9 54.3408 238.488C54.4512 238.75 54.3328 239.094 54.4203 239.374C54.5372 239.748 54.5853 240.163 54.5853 240.554C54.5853 241.987 55.0254 243.298 55.0254 244.71C55.0254 245.489 55.0254 246.267 55.0254 247.045C55.0254 247.728 55.3191 248.285 55.3555 248.94C55.4252 250.195 55.3013 251.419 55.5695 252.626C55.7063 253.242 55.9057 253.969 55.9057 254.6C55.9057 255.333 56.1257 255.957 56.1257 256.703C56.1257 257.489 56.4247 258.311 56.4558 259.087C56.4811 259.72 56.7508 260.378 56.7859 261.043C56.8031 261.37 57.0059 261.581 57.0059 261.923C57.0059 262.248 57.1159 262.559 57.1159 262.858C57.1159 263.626 57.446 264.411 57.446 265.169C57.446 265.729 57.7078 266.331 57.8617 266.85C57.9456 267.133 57.9371 267.525 57.99 267.816C58.0504 268.148 58.1904 268.399 58.3018 268.72C58.4028 269.012 58.3745 269.347 58.4607 269.649C58.5776 270.058 58.7663 270.633 58.7663 271.055C58.7663 271.719 59.0566 272.574 59.2675 273.207C59.483 273.853 59.8666 274.636 59.8666 275.322C59.8666 276.028 60.1229 277.13 60.4411 277.767C60.6933 278.271 60.6438 279.08 61.0218 279.533C61.3861 279.97 61.4912 280.863 61.682 281.398C61.9243 282.076 62.0577 282.687 62.2627 283.354C62.449 283.959 62.6911 284.745 62.7272 285.358C62.7578 285.878 62.9281 286.636 63.1429 287.119C63.3446 287.573 63.1373 288.754 63.6074 288.989"
                    stroke="#282423"
                    strokeLinecap="round"
                  />
                  <path
                    d="M63.7169 288.769C63.8453 289.427 64.0881 289.986 64.2609 290.591C64.4412 291.222 64.5017 291.818 64.7927 292.4C65.0365 292.888 65.2392 293.667 65.3612 294.215C65.4515 294.622 65.6999 295.49 65.9724 295.817C66.0781 295.944 66.1447 296.395 66.223 296.581C66.323 296.819 66.4394 297.428 66.4675 297.681C66.5225 298.176 67.0076 298.654 67.1216 299.167C67.267 299.821 67.5251 300.473 67.7634 301.117C68.0005 301.757 68.2037 302.559 68.6436 303.097C68.8797 303.386 68.8546 304.146 69.1632 304.393C69.417 304.596 69.2656 304.926 69.3526 305.187C69.465 305.524 69.5959 305.841 69.7438 306.153C69.8008 306.274 69.7094 306.467 69.7927 306.569C69.8939 306.692 69.9883 306.672 69.9883 306.868C69.9883 307.267 70.3467 307.518 70.4223 307.859C70.5515 308.44 70.8967 308.982 71.0886 309.558C71.3073 310.214 71.6336 310.813 71.9443 311.434C72.1839 311.914 72.3664 312.612 72.7145 312.999C72.9914 313.307 73.4261 313.949 73.5153 314.35C73.6624 315.012 74.2114 315.57 74.3955 316.214C74.4661 316.462 74.735 316.856 74.8539 317.107C74.9461 317.302 75.2594 317.643 75.2696 317.816C75.2917 318.192 75.6217 318.46 75.7097 318.812C75.781 319.098 76.0341 319.624 76.2109 319.851C76.6216 320.379 76.7678 321.069 77.2011 321.557C77.6227 322.031 77.7349 322.847 78.1791 323.317C78.5892 323.751 78.7896 324.314 79.1693 324.803C79.4801 325.202 79.8739 325.891 80.0862 326.373C80.7188 327.811 81.8813 328.996 82.7452 330.292C82.9372 330.58 83.5932 331.263 83.6315 331.569C83.67 331.877 84.4271 332.8 84.6767 332.999C85.0032 333.261 85.1452 333.852 85.5019 334.075C85.75 334.23 85.7994 334.581 86.052 334.735C86.2015 334.827 86.6932 335.249 86.7122 335.42C86.7484 335.746 87.5301 336.414 87.7574 336.691C88.0859 337.093 88.4625 337.377 88.6926 337.779C89.1701 338.615 90.8989 339.6 91.3989 340.1"
                    stroke="#282423"
                    strokeLinecap="round"
                  />
                  <path
                    d="M200.364 378.739C194.734 378.843 189.097 379.031 183.465 379.031C183.081 379.031 182.681 379.065 182.299 379.023C181.729 378.959 181.103 378.77 180.551 378.739C179.296 378.67 178.021 378.739 176.764 378.739C176.105 378.739 175.378 378.679 174.724 378.586C174.25 378.518 173.386 378.588 172.976 378.416C171.949 377.983 170.665 378.074 169.561 377.874C168.302 377.645 167.027 377.664 165.773 377.436C164.801 377.26 163.689 377.343 162.778 376.959C161.756 376.529 160.513 376.617 159.428 376.376C158.263 376.117 157.054 375.826 155.859 375.826C154.934 375.826 153.77 375.565 152.872 375.316C152.33 375.165 151.818 375.081 151.27 374.919C150.746 374.765 150.195 374.467 149.659 374.377C147.275 373.98 145.198 372.624 142.739 372.475C140.779 372.356 139.127 371.015 137.211 370.59C136.211 370.367 134.921 369.763 133.942 369.335C133.349 369.076 132.826 368.785 132.218 368.574C131.802 368.43 131.256 368.388 130.874 368.218C129.808 367.744 128.786 367.413 127.75 366.939C126.679 366.45 125.671 365.946 124.691 365.369C122.803 364.259 120.954 363.25 119.066 362.189C117.189 361.132 115.419 360.018 113.619 358.959C112.163 358.103 110.582 357.152 109.16 356.086C107.329 354.713 105.596 353.461 104.005 351.87C103.597 351.462 103.049 351.182 102.612 350.769C102.433 350.599 101.867 349.963 101.657 349.903C101.193 349.77 100.985 349.31 100.605 349.021C100.041 348.592 99.4023 348.077 98.8895 347.564C97.2812 345.956 95.3625 344.668 93.7341 343.04C92.5573 341.863 92.3992 341.1 91.3992 340.1"
                    stroke="#282423"
                    strokeLinecap="round"
                  />
                  <path
                    d="M199.926 378.463C198.765 378.236 197.586 378.257 196.394 378.257C195.103 378.257 193.82 378.089 192.557 377.895C191.994 377.809 191.405 377.487 190.839 377.487C190.556 377.487 190.223 377.369 189.934 377.33C189.593 377.285 189.243 377.182 188.907 377.102C187.472 376.76 186.007 376.584 184.559 376.294C183.138 376.01 181.705 375.717 180.308 375.279C179.759 375.107 179.139 375.141 178.613 374.908C178.423 374.823 178.195 374.835 177.997 374.754C177.741 374.649 177.371 374.56 177.101 374.511C176.813 374.459 176.539 374.367 176.251 374.303C175.918 374.229 175.504 374.131 175.192 373.992C174.874 373.851 174.539 373.826 174.222 373.71C174.077 373.656 173.974 373.584 173.814 373.584C173.647 373.584 173.48 373.602 173.323 373.533C173.175 373.467 173.046 373.502 172.892 373.478C172.696 373.448 172.528 373.384 172.319 373.379C171.967 373.369 171.557 373.252 171.212 373.185C170.298 373.005 169.541 372.518 168.653 372.252C168.372 372.167 168.1 372.151 167.831 372.043C167.581 371.943 167.294 371.882 167.035 371.835C166.49 371.736 166.057 371.4 165.565 371.173C165.161 370.986 164.71 370.795 164.287 370.659C163.836 370.515 163.31 370.404 162.901 370.166C162.356 369.848 161.697 369.671 161.112 369.424C160.341 369.099 159.621 368.675 158.852 368.346C158.461 368.178 158.097 367.94 157.699 367.781C157.432 367.674 157.16 367.569 156.889 367.472C156.75 367.423 156.615 367.441 156.495 367.37C156.387 367.306 156.234 367.296 156.116 367.244C156.02 367.202 155.863 367.118 155.759 367.113C155.44 367.096 155.089 366.867 154.823 366.714C154.407 366.473 153.982 366.363 153.602 366.037C153.383 365.85 152.973 365.671 152.701 365.572C152.495 365.498 152.349 365.403 152.136 365.364C151.826 365.308 151.591 365.017 151.268 364.959C150.987 364.908 150.759 364.687 150.472 364.651C150.247 364.622 150.019 364.429 149.827 364.314C149.582 364.167 149.327 364.008 149.086 363.852C148.888 363.723 148.634 363.489 148.412 363.415C148.184 363.339 148.031 363.16 147.822 363.056C147.597 362.943 147.368 362.848 147.131 362.736C146.93 362.641 146.628 362.586 146.463 362.439C146.269 362.265 146.002 362.221 145.807 362.04C145.606 361.853 145.257 361.783 145.025 361.618C144.8 361.457 144.463 361.296 144.207 361.184C144.048 361.115 143.878 361.099 143.73 361.001C143.567 360.894 143.405 360.76 143.231 360.673C142.876 360.496 142.52 360.341 142.201 360.128"
                    stroke="#282423"
                    strokeLinecap="round"
                  />
                  <path
                    d="M96.9111 121.402C94.8453 127.486 93.2528 132.16 91.2458 138.123C90.6795 139.805 90.2889 141.557 89.5543 143.173C89.4982 143.296 89.5024 143.425 89.4491 143.545C89.3394 143.792 89.3435 144.032 89.2225 144.274C88.9547 144.809 88.8528 145.397 88.6074 145.949C88.3756 146.47 88.1703 147.163 88.1703 147.738C88.1703 148.053 87.9792 149.302 87.8061 149.51C87.3854 150.015 87.6716 150.822 87.4096 151.412C87.1747 151.94 87.0049 152.575 87.0049 153.168C87.0049 153.965 86.763 155.128 86.5355 155.896C86.3795 156.422 86.1308 157.199 86.1308 157.749C86.1308 158.824 85.5481 159.879 85.5481 160.881C85.5481 161.494 85.2567 162.103 85.2567 162.775C85.2567 163.595 84.9654 164.373 84.9654 165.219C84.9654 165.845 84.8126 166.194 84.6821 166.781C84.5602 167.33 84.6541 167.773 84.415 168.311C84.2944 168.582 84.435 168.931 84.3503 169.217C84.2188 169.661 84.0913 170.027 84.0913 170.496C84.0913 170.759 83.9811 171.197 83.8728 171.435C83.7103 171.792 83.8771 172.198 83.7676 172.568C83.3473 173.986 82.9259 175.768 82.9259 177.262C82.9259 178.764 82.3431 180.225 82.3431 181.73C82.3431 183.734 81.6147 185.68 81.6147 187.686C81.6147 189.482 81.6582 191.301 81.461 193.076C81.3655 193.935 81.1777 194.664 81.1777 195.545C81.1777 196.352 81.1777 197.158 81.1777 197.965C81.1777 199.298 81.1777 200.63 81.1777 201.963C81.1777 205.261 81.539 208.833 81.0644 212.096C80.9181 213.102 81.032 214.205 81.032 215.22C81.032 216.314 80.8863 217.385 80.8863 218.489C80.8863 220.745 80.8863 223 80.8863 225.256C80.8863 228.099 81.1777 230.811 81.1777 233.648C81.1777 235.132 81.4691 236.605 81.4691 238.092C81.4691 238.699 81.4691 239.306 81.4691 239.913C81.4691 240.517 81.7382 241.065 81.7604 241.62C81.7882 242.316 82.0518 243.043 82.0518 243.7C82.0518 244.462 82.0255 245.229 82.0518 245.991C82.1091 247.652 82.3855 249.59 82.8935 251.17C83.1575 251.992 82.8667 252.998 83.1039 253.857C83.3193 254.638 83.1952 255.825 83.5814 256.52C83.8377 256.981 83.7999 258.199 83.7999 258.746C83.7999 259.328 83.9703 260.275 84.1641 260.818C84.5018 261.763 84.4357 262.816 84.7064 263.764C84.9847 264.738 85.1364 265.78 85.2486 266.791C85.3597 267.79 85.5481 268.878 85.5481 269.882C85.5481 270.435 85.5505 270.869 85.7747 271.388C85.9414 271.773 85.7698 272.219 85.9123 272.618C86.4394 274.094 86.8177 275.617 87.2639 277.134C87.7027 278.626 88.3336 280.057 88.8664 281.537C89.3933 283 89.7323 284.486 90.1775 285.988C90.387 286.695 90.6557 287.562 90.7845 288.27C90.9094 288.957 91.3753 289.532 91.3753 290.245"
                    stroke="#282423"
                    strokeLinecap="round"
                  />
                  <path
                    d="M91.3085 290.184C93.3594 295.574 95.2009 301.223 97.6563 306.407C97.9439 307.014 98.2076 307.647 98.4747 308.248C98.9629 309.347 99.4048 310.441 99.9455 311.583C100.304 312.338 100.674 313.04 101.04 313.772C101.411 314.514 101.881 315.209 102.213 315.967C102.538 316.71 103.166 317.371 103.529 318.096C103.956 318.951 104.338 319.767 104.845 320.59C105.791 322.128 106.803 323.533 107.731 325.041C108.67 326.568 109.772 327.976 110.772 329.476C111.645 330.786 113.021 331.869 113.802 333.236C114.223 333.972 114.723 334.739 115.196 335.448C115.759 336.293 116.257 337.168 116.838 338.008C117.422 338.852 118.175 339.585 118.729 340.446C119.263 341.277 120.215 341.856 120.891 342.559C121.444 343.133 121.998 343.885 122.638 344.328C123.234 344.74 123.692 345.391 124.308 345.727C124.549 345.858 124.896 346.177 125.093 346.374C125.334 346.614 125.628 346.842 125.901 347.065C126.522 347.574 127.128 348.319 127.836 348.729C128.52 349.125 129.007 349.888 129.622 350.349C130.17 350.761 130.64 351.266 131.121 351.693C131.561 352.085 132.003 352.477 132.414 352.888C132.752 353.225 133.513 353.962 133.952 354.087C134.03 354.11 134.553 354.535 134.604 354.624C134.722 354.83 135.256 355.205 135.478 355.298C135.757 355.417 136.026 355.646 136.296 355.796C136.493 355.905 136.872 356.161 137.037 356.327C137.456 356.746 137.963 357.131 138.397 357.565C138.699 357.867 139.015 358.088 139.288 358.406C139.421 358.562 139.775 358.557 139.901 358.76C139.957 358.848 140.564 359.244 140.675 359.257C140.825 359.275 141.296 359.679 141.422 359.805C141.771 360.154 142.244 360.44 142.666 360.651"
                    stroke="#282423"
                    strokeLinecap="round"
                  />
                  <path
                    d="M208.268 2.04842C211.979 2.04842 215.543 1.81738 219.255 1.81738C223.087 1.81738 226.836 2.04842 230.678 2.04842C232.684 2.04842 234.709 2.51049 236.801 2.51049C238.522 2.51049 240.146 2.97255 241.896 2.97255C243.007 2.97255 244.124 2.93991 245.234 2.97255C246.029 2.99594 246.962 3.38944 247.775 3.43462C249.696 3.54136 251.773 4.12773 253.782 4.12773C255.616 4.12773 257.098 4.58122 258.865 4.83366C260 4.99584 261.057 5.57965 262.125 5.73213C263.23 5.89008 264.373 6.43807 265.462 6.43807C266.981 6.43807 269.825 6.40485 271.058 7.41355C272.379 8.49434 274.451 8.12863 275.961 8.79975C276.701 9.12854 277.535 9.07925 278.169 9.44152C279.018 9.92685 280.21 10.1346 281.172 10.1346C282.912 10.1346 284.352 11.9829 286.011 11.9829C287.973 11.9829 289.694 13.7149 291.672 13.8312C292.134 13.8584 293.096 14.3515 293.52 14.5756C294.202 14.937 294.838 15.4257 295.599 15.6794"
                    stroke="#282423"
                    strokeLinecap="round"
                  />
                  <path
                    d="M295.599 15.6797C297.162 16.3279 298.539 16.7311 300.104 17.0787C301.289 17.342 302.385 18.2689 303.454 18.8628C304.661 19.5336 305.847 20.1269 307.048 20.8908C307.766 21.3476 308.769 21.0971 309.409 21.7379C309.85 22.1787 310.535 22.5061 311.181 22.6236C312.665 22.8935 313.996 23.4803 315.416 24.0483C315.826 24.2122 316.614 24.8639 316.957 25.1521C317.468 25.5832 318.419 26.0275 319.049 26.3073C319.793 26.6382 320.139 27.0259 320.679 27.5651C321.178 28.0645 321.91 28.2573 322.399 28.7203C323.504 29.7675 324.887 31.0299 326.198 31.8008C327.73 32.7018 328.892 34.0042 330.382 34.8555C331.535 35.514 332.67 36.4756 333.591 37.3969C333.977 37.7827 335.026 38.723 335.568 38.7831C336.214 38.855 337.086 40.1049 337.634 40.5159C338.692 41.3093 339.498 42.3433 340.535 43.1728C342.477 44.7265 343.947 46.2385 345.618 47.909C347.485 49.7759 349.472 51.2976 351.278 53.2099C351.86 53.8266 352.262 54.274 352.844 54.9042C353.429 55.5384 353.902 56.6271 354.615 57.0348C355.889 57.763 356.505 59.6453 357.747 60.449C358.214 60.7515 358.622 61.7907 359.133 61.8866C359.388 61.9344 360.418 63.214 360.519 63.5166C360.784 64.31 361.583 64.9 362.085 65.5831C362.6 66.2829 362.958 67.0918 363.536 67.7651C367.499 72.3892 371.402 77.5906 374.202 82.9107C374.815 84.0761 375.553 85.3049 376.345 86.2735C377.119 87.2197 377.555 89.3441 378.54 90.0214C378.87 90.2483 379.339 91.5145 379.515 91.9724C379.735 92.542 380.353 93.3768 380.748 93.8848C381.15 94.4021 381.401 95.0385 381.723 95.6176C382.05 96.2064 382.745 96.9945 382.917 97.5942C383.091 98.2028 383.42 98.8564 383.738 99.4296C384.03 99.9551 384.717 100.784 384.778 101.393C384.931 102.92 386.51 104.394 386.844 105.899C387.193 107.466 388.228 108.993 388.474 110.635C388.592 111.421 389.191 112.627 389.527 113.394C389.771 113.953 390.323 114.699 390.323 115.255"
                    stroke="#282423"
                    strokeLinecap="round"
                  />
                  <path
                    d="M390.252 115.223C392.637 121.866 392.509 121.515 394.68 127.537C394.713 127.63 395.952 130.615 396.057 131.461C396.079 131.633 396.036 131.819 396.105 131.983C396.209 132.232 396.409 132.67 396.409 132.924C396.409 133.54 396.887 134.257 396.922 134.891C396.951 135.418 397.427 136.033 397.606 136.525C397.86 137.224 398.135 137.827 398.3 138.568C398.597 139.904 399.07 141.165 399.145 142.587C399.189 143.426 399.692 144.237 399.82 145.067C399.959 145.972 400.016 146.905 400.181 147.813C400.818 151.317 402.266 154.595 402.395 158.188C402.445 159.607 402.981 160.905 403.24 162.331C403.609 164.36 403.876 166.417 403.934 168.507C403.97 169.818 404.276 171.105 404.276 172.44C404.276 173.233 404.516 174.11 404.751 174.873C404.892 175.331 404.819 176.303 405.217 176.621C405.445 176.803 405.644 178.589 405.644 178.93C405.644 181.273 405.933 183.555 405.986 185.894C406.006 186.764 406.229 187.73 406.338 188.602C406.476 189.711 406.67 190.707 406.67 191.842C406.67 194.009 406.67 196.175 406.67 198.341C406.67 200.204 407.183 201.974 407.183 203.823C407.183 205.79 407.354 207.778 407.354 209.762C407.354 211.562 407.012 213.311 407.012 215.092C407.012 218.652 407.183 222.156 407.183 225.705C407.183 227.336 407.442 229.218 407.174 230.827C406.944 232.205 406.67 233.726 406.67 235.15C406.67 237.125 405.986 238.983 405.986 240.927C405.986 241.769 405.578 242.636 405.483 243.492C405.356 244.637 405.296 245.823 405.141 246.988C404.901 248.789 404.939 250.581 404.656 252.385C404.543 253.107 404.276 254.082 404.276 254.78C404.276 255.495 403.934 256.033 403.934 256.746C403.934 258.478 403.302 260.263 403.088 261.972C402.986 262.788 402.76 263.731 402.737 264.528C402.706 265.574 402.28 266.599 402.224 267.607C402.202 267.999 402.257 268.313 402.053 268.671C401.714 269.263 401.961 270.028 401.787 270.676C401.488 271.785 401.33 272.916 401.017 274.011C400.53 275.716 400.199 277.722 399.525 279.407C399.231 280.143 399.234 280.966 398.889 281.726C398.328 282.96 398.377 284.614 398.024 285.925C397.833 286.636 397.854 287.372 397.606 288.054C397.453 288.475 397.289 289.052 397.264 289.498C397.185 290.874 396.361 292.171 396.105 293.526C395.953 294.331 395.383 295.305 395.383 296.082C395.383 297.249 394.898 299.062 394.281 300.016C393.712 300.895 393.901 302.191 393.292 303.104"
                    stroke="#282423"
                    strokeLinecap="round"
                  />
                  <path
                    d="M207.979 2.0752C216.344 2.99261 224.751 3.75222 233.102 4.7961C233.319 4.82322 233.472 4.98677 233.681 5.04202C234.124 5.15924 234.623 5.18992 235.045 5.39105C235.853 5.77586 236.971 5.93048 237.901 5.93048C239.44 5.93048 240.874 7.16186 242.383 7.35043C244.026 7.55584 245.568 8.78624 247.277 8.78624C248.875 8.78624 250.545 9.42811 252.069 9.89682C252.734 10.1016 253.391 10.1136 254.036 10.4362C254.766 10.8014 255.487 11.0157 256.241 11.285C256.787 11.4801 257.838 11.3983 258.272 11.7531C258.726 12.1242 259.548 12.1309 260.089 12.2211C260.364 12.267 261.432 12.952 261.659 13.1413C261.981 13.409 263.269 13.641 263.666 13.641C264.078 13.641 264.441 14.2122 264.88 14.2122C265.344 14.2122 265.714 14.5936 266.094 14.7833"
                    stroke="#282423"
                    strokeLinecap="round"
                  />
                  <path
                    d="M266.093 14.7832C267.242 15.248 268.189 15.914 269.314 16.4253C269.963 16.7201 270.557 17.0107 271.234 17.2741C271.798 17.4933 272.631 17.7287 273.09 18.1308C273.457 18.452 274.207 18.6905 274.661 18.8527C275.004 18.9753 275.536 19.3524 275.874 19.3524C276.43 19.3524 276.881 19.8189 277.374 19.995C277.932 20.1942 278.329 20.5387 278.873 20.7803C280.011 21.286 281.071 22.2286 282.3 22.5017C282.504 22.5471 282.862 22.823 283.085 22.9221C283.352 23.0407 283.704 23.0873 283.934 23.2791C284.414 23.6788 285.162 24.0113 285.727 24.2786C286.889 24.8291 287.795 25.904 289.019 26.349C290.187 26.774 291.496 27.3135 292.573 27.999C293.39 28.5193 294.376 28.8445 295.143 29.4904C295.586 29.8639 296.205 30.2125 296.729 30.4899C297.19 30.7335 297.883 31.5757 298.364 31.6322C298.992 31.7062 299.466 32.6538 300.045 32.8856C300.579 33.0991 300.952 33.6065 301.426 33.8851C302.569 34.5576 303.358 35.7554 304.503 36.4553C305.523 37.0784 306.306 38.1549 307.359 38.7399C308.446 39.3435 309.21 40.4309 310.278 41.0245C311.231 41.5535 312.095 42.6241 313.039 43.2774C313.661 43.7081 314.175 44.2571 314.784 44.737C315.253 45.1066 316.07 45.565 316.387 46.0538C316.594 46.3738 317.152 46.6921 317.434 46.974C317.722 47.2618 318.374 47.9032 318.711 48.0529C319.282 48.3067 319.541 49.0014 320.004 49.3379C320.668 49.8208 321.252 50.2819 321.789 50.9086C322.561 51.8098 323.544 52.4518 324.288 53.4074C324.651 53.8746 325.327 54.0904 325.644 54.5656C325.993 55.0896 326.694 55.6629 327.143 56.1125C327.958 56.9269 328.762 57.8799 329.634 58.6271C330.228 59.136 330.777 59.9961 331.276 60.6103C331.685 61.1139 332.195 61.872 332.704 62.2682C333.05 62.5369 334.049 63.4151 334.203 63.8389C334.4 64.3787 335.08 64.6227 335.354 65.124C335.558 65.4981 336.104 65.9613 336.409 66.2663C336.774 66.6314 337.059 67.1704 337.424 67.5355C338.273 68.3841 338.948 69.4547 339.772 70.3278C340.638 71.245 341.145 72.5501 341.882 73.6119C342.252 74.1447 342.476 74.9266 342.914 75.3889C343.331 75.8293 343.744 76.4783 344.024 77.0389C344.542 78.0753 345.274 78.9842 345.801 80.0374C346.348 81.1324 346.704 82.2138 347.229 83.3215C347.515 83.9247 347.842 84.5177 348.165 85.0985C348.378 85.4812 348.538 85.9902 348.831 86.3201C349.187 86.7207 349.328 87.3185 349.625 87.7797C349.955 88.2939 350.189 88.9108 350.45 89.4614C350.87 90.3483 351.596 91.0928 351.909 92.0316"
                    stroke="#282423"
                    strokeLinecap="round"
                  />
                  <path
                    d="M351.829 91.9688C352.47 92.7893 352.974 93.6578 353.453 94.5215C354.055 95.6039 354.326 96.7788 354.889 97.8478C355.743 99.4704 356.604 100.986 357.433 102.644C357.651 103.081 357.913 103.564 358.052 104.036C358.179 104.468 358.437 105.313 358.714 105.652C359.479 106.587 360.02 107.903 360.562 108.987C361.659 111.182 362.152 113.462 363.003 115.76C363.165 116.198 363.411 116.607 363.553 117.066C363.698 117.539 364.11 118.028 364.197 118.51C364.395 119.598 364.708 120.713 365.1 121.742C365.351 122.401 365.426 123.098 365.753 123.771C365.975 124.228 366.216 124.756 366.372 125.223C366.506 125.625 366.782 126.035 366.991 126.401C367.229 126.817 367.218 127.279 367.42 127.707C367.847 128.608 367.896 129.708 368.383 130.561C368.792 131.277 368.535 132.39 368.882 133.122C369.389 134.193 369.463 135.58 369.853 136.749C370.184 137.741 370.227 138.779 370.669 139.775C370.868 140.22 370.744 140.698 370.979 141.167C371.163 141.535 371.264 142.146 371.331 142.551C371.398 142.953 371.842 143.309 371.933 143.72C372.038 144.191 372.027 144.561 372.217 145.035C372.626 146.058 372.678 147.252 372.878 148.353C372.968 148.848 373.179 149.152 373.179 149.685C373.179 150.034 373.382 150.597 373.523 150.914C374.305 152.672 374.525 154.991 374.572 156.913C374.624 159.041 375.226 161.144 375.345 163.291C375.405 164.365 376.273 165.388 376.273 166.471C376.273 167.421 376.356 168.61 376.703 169.479C376.942 170.077 376.864 170.858 377.013 171.491C377.152 172.082 377.202 172.968 377.202 173.571C377.202 174.625 377.511 175.558 377.511 176.63C377.511 177.951 377.975 179.298 377.975 180.619C377.975 181.846 378.13 183.083 378.13 184.332C378.13 185.581 378.439 186.806 378.439 188.036C378.439 189.312 378.749 190.526 378.749 191.792C378.749 192.783 379.058 193.656 379.058 194.62C379.058 195.626 379.058 196.631 379.058 197.637C379.058 199.786 379.213 201.849 379.213 203.98C379.213 205.269 379.368 206.612 379.368 207.934C379.368 208.524 379.368 209.114 379.368 209.704C379.368 210.608 379.058 211.446 379.058 212.334C379.058 213.647 379.058 214.959 379.058 216.271C379.058 217.168 379.058 218.064 379.058 218.961C379.058 219.505 379.225 220.34 379.024 220.844C378.557 222.011 378.965 223.546 378.74 224.78C378.544 225.86 378.594 226.993 378.594 228.115C378.594 230.728 378.439 233.342 378.439 235.937C378.439 238.626 377.511 241.381 377.511 244.085C377.511 245.211 377.202 246.244 377.202 247.385C377.202 248.582 377.037 249.852 376.772 251.012C376.537 252.042 376.782 253.398 376.351 254.347C376.144 254.801 376.173 255.61 376.11 256.109C376.031 256.74 375.847 257.398 375.809 258.043C375.673 260.365 375.169 262.909 374.606 265.16C374.302 266.375 374.287 267.749 373.961 268.89C373.665 269.928 373.831 271.505 373.214 272.397C373.08 272.589 373.205 272.988 373.171 273.213C373.117 273.561 372.887 273.859 372.87 274.219"
                    stroke="#282423"
                    strokeLinecap="round"
                  />
                  <path
                    d="M203.986 45.3569C206.744 45.4929 209.756 45.9397 212.508 45.9397C213.448 45.9397 214.252 46.6152 215.203 46.6681C217.242 46.7813 219.306 47.6878 221.354 47.6878C221.832 47.6878 222.309 47.6878 222.787 47.6878C223.188 47.6878 224.16 47.8847 224.51 48.0601C224.997 48.3034 225.604 48.4647 226.161 48.5943C226.69 48.7173 227.309 49.1232 227.845 49.1446C228.784 49.1822 229.628 49.873 230.572 49.873C231.359 49.873 232.084 50.3958 232.863 50.4557C233.973 50.5412 235.15 51.0925 236.254 51.3379C237.136 51.5339 238.021 51.9467 238.803 52.3172C239.669 52.7271 240.849 52.7933 241.652 53.3046C242.413 53.789 243.526 54.0962 244.371 54.4215C245.369 54.8051 246.405 55.3541 247.463 55.5464C247.953 55.6355 249.09 55.946 249.47 56.2506C249.729 56.4576 250.385 56.3739 250.603 56.6471C250.701 56.7696 251.374 57.0963 251.558 57.1489C252.358 57.3773 253.483 57.905 254.132 58.4358C254.428 58.6779 255.003 58.7256 255.338 58.9861C255.755 59.3103 256.128 59.564 256.576 59.8521C257.393 60.3774 258.473 60.5873 259.198 61.2361C259.516 61.5204 259.984 61.4384 260.291 61.7459C260.627 62.0822 261.203 62.1559 261.602 62.4662C261.884 62.6851 262.305 62.7244 262.614 62.9842C262.863 63.1942 263.541 63.6771 263.86 63.7126C264.148 63.7446 264.47 64.2286 264.807 64.3034C265.054 64.3583 265.876 64.7712 266.037 64.959C266.316 65.2837 266.633 65.5245 266.984 65.7198C267.324 65.9083 267.899 66.571 268.231 66.6262C268.639 66.6943 269.093 67.3008 269.396 67.5731C269.787 67.9245 270.36 68.1893 270.699 68.5848C271.089 69.0394 272.057 69.8008 272.52 70.0902C273.169 70.4955 273.991 71.2084 274.503 71.806C275.14 72.5496 275.966 72.9426 276.68 73.6189C278.1 74.9643 279.367 76.4441 281.018 77.6332C281.379 77.8931 281.652 78.2955 281.997 78.572C282.218 78.7486 282.811 79.1486 282.944 79.3813C283.397 80.1726 284.485 80.7761 285.13 81.4208C285.719 82.0099 286.157 82.6486 286.805 83.1528C287.32 83.5532 287.77 84.2629 288.334 84.5449"
                    stroke="#282423"
                    strokeLinecap="round"
                  />
                  <path
                    d="M288.578 84.8257C290.787 87.1637 293.079 89.8992 295.217 92.0368C295.668 92.488 296.04 92.9996 296.308 93.6025C296.611 94.2827 297.224 94.8917 297.597 95.5439C297.909 96.0914 298.522 96.8551 298.957 97.3154C300.086 98.5112 301.161 99.7641 302.025 101.109C302.925 102.509 303.612 104.097 304.593 105.359C305.208 106.149 305.436 107.192 306.051 107.944C306.483 108.472 307.154 109.928 307.259 110.592C307.404 111.511 308.112 112.485 308.512 113.33C308.684 113.694 309.128 114.234 309.183 114.618C309.258 115.144 309.76 115.438 309.827 115.907C309.948 116.758 310.698 117.681 311.053 118.492C311.436 119.368 311.706 120.219 312.126 121.06C313.029 122.866 313.474 124.912 314.309 126.768C314.698 127.633 314.643 128.665 315.025 129.524C315.319 130.184 315.457 130.97 315.714 131.689C315.976 132.424 316.155 133.207 316.519 133.863C316.765 134.306 317.012 134.767 317.208 135.232C317.289 135.425 317.555 136.02 317.566 136.198C317.655 137.719 318.786 139.164 319.006 140.707C319.117 141.48 319.474 142.412 319.695 143.159C319.85 143.682 320.036 144.266 320.134 144.805C320.207 145.21 320.465 145.615 320.465 146.022C320.465 146.784 320.711 147.83 321.028 148.527C321.213 148.934 321.405 149.754 321.431 150.209C321.458 150.688 321.753 150.975 321.753 151.497C321.753 152.247 322.22 153.075 322.388 153.832C322.493 154.303 322.321 154.748 322.522 155.201C322.705 155.613 322.696 156.047 322.719 156.489C322.772 157.492 323.289 158.513 323.363 159.513C323.396 159.949 323.685 160.305 323.685 160.757C323.685 161.142 323.575 161.701 323.766 162.045C323.988 162.444 323.994 162.969 324.007 163.414C324.024 163.974 324.33 164.469 324.33 165.06C324.33 165.396 324.404 165.931 324.571 166.232C324.809 166.66 324.528 167.224 324.732 167.673C325.12 168.526 324.73 169.723 325.215 170.5C325.413 170.816 325.296 171.425 325.296 171.788C325.296 172.394 325.618 172.921 325.618 173.56C325.618 174.569 325.94 175.572 325.94 176.619C325.94 177.468 326.013 178.483 326.11 179.357C326.506 182.917 327.067 186.522 327.067 190.147C327.067 194.684 327.418 199.16 327.55 203.674C327.62 206.048 327.872 208.424 327.872 210.841C327.872 213.229 327.957 215.63 327.72 217.998C327.469 220.511 327.228 222.957 327.228 225.505C327.228 226.333 327.405 227.47 327.103 228.224C326.917 228.689 326.906 229.737 326.906 230.246C326.906 230.929 326.869 231.678 326.665 232.331C326.489 232.894 326.585 233.527 326.459 234.111C326.341 234.656 326.262 235.486 326.262 236.044C326.262 237.455 326.632 239.468 326.226 240.839C325.927 241.848 325.94 243.025 325.94 244.087C325.94 245.247 325.677 246.351 325.618 247.478C325.556 248.659 325.296 249.803 325.296 250.985C325.296 251.989 325.149 253.245 324.813 254.17C323.948 256.547 323.991 259.287 323.524 261.739C323.106 263.933 322.141 266.167 322.075 268.413C322.062 268.866 321.803 269.378 321.744 269.854C321.683 270.343 321.486 270.81 321.422 271.321C321.296 272.324 320.787 273.218 320.787 274.211"
                    stroke="#282423"
                    strokeLinecap="round"
                  />
                  <path
                    d="M320.725 274.358C320.44 275.03 320.128 275.507 320.128 276.272C320.128 276.798 320.121 277.515 319.907 277.997C319.422 279.087 319.382 280.373 318.856 281.425C318.251 282.636 318.36 284.158 317.64 285.329C317.493 285.567 317.341 285.974 317.341 286.252C317.341 286.587 317.072 286.853 316.965 287.176C316.868 287.467 316.81 287.754 316.6 287.994C316.354 288.276 316.398 288.71 316.147 288.989C315.64 289.552 315.581 290.492 315.328 291.201C315.063 291.943 314.975 293.154 314.455 293.767C313.76 294.584 313.513 295.738 312.884 296.609C312.369 297.322 311.888 298.127 311.59 298.964C311.197 300.072 311.04 301.223 310.673 302.326C310.349 303.298 310.197 304.313 309.677 305.191C308.845 306.594 308.464 308.151 307.587 309.515C307.057 310.339 306.732 311.349 306.172 312.125C305.455 313.117 305.217 314.433 304.557 315.442C303.533 317.009 302.369 318.443 301.317 320.021C300.787 320.815 300.153 321.518 299.724 322.376C299.283 323.259 298.593 324.024 298.253 324.942C297.888 325.929 297.118 326.9 296.539 327.784C296.156 328.368 295.657 328.853 295.223 329.399C294.694 330.066 294.077 330.766 293.476 331.367C292.779 332.064 292.388 332.991 291.762 333.734C291.137 334.475 290.396 335.186 289.793 335.967C289.151 336.8 288.303 337.593 287.781 338.5C287.505 338.979 287.062 339.433 286.691 339.849C286.254 340.341 285.973 340.961 285.536 341.442C285.389 341.604 285.349 341.807 285.237 341.984C285.081 342.229 284.798 342.412 284.607 342.63C284.301 342.98 284.062 343.281 283.722 343.609C283.061 344.245 282.465 344.966 281.809 345.622C281.431 346 281.177 346.453 280.814 346.816C280.642 346.988 280.547 347.314 280.316 347.314"
                    stroke="#282423"
                    strokeLinecap="round"
                  />
                  <path
                    d="M207.735 2.00231C202.554 1.81434 197.506 1.52546 192.35 1.52546C189.214 1.52546 186.139 1.40625 183.005 1.40625C179.962 1.40625 177.104 2.12153 174.064 2.12153C172.427 2.12153 170.832 2.24074 169.203 2.24074C168.365 2.24074 167.605 2.47917 166.779 2.47917C165.964 2.47917 165.25 2.67813 164.461 2.71759C163.021 2.78959 161.676 2.95602 160.222 2.95602C158.396 2.95602 156.494 3.25226 154.745 3.79051C153.364 4.21549 151.731 4.38657 150.274 4.38657C149.529 4.38657 148.787 4.7164 148.036 4.74421C147.618 4.75967 147.158 4.80642 146.744 4.87005C146.314 4.93629 145.693 4.99514 145.294 5.12834C143.948 5.57679 142.411 5.70223 141.095 6.36021C140.59 6.61248 139.646 6.77083 139.068 6.77083C138.675 6.77083 138.349 6.99516 137.969 7.00926C137.589 7.02334 137.29 6.94167 136.982 7.18145C136.808 7.3166 136.37 7.32401 136.148 7.37352C135.737 7.46466 135.332 7.57678 134.922 7.69804C134.257 7.89531 133.557 7.85232 132.896 8.05568C132.558 8.15951 132.169 8.17847 131.862 8.37358C131.727 8.46008 131.228 8.6705 131.081 8.67824C130.506 8.70847 130.083 9.15509 129.531 9.15509"
                    stroke="#282423"
                    strokeLinecap="round"
                  />
                  <path
                    d="M129.174 9.15527C128.418 9.31732 127.743 9.56589 127.088 9.93016C126.516 10.2474 125.828 10.3723 125.266 10.705C124.247 11.3093 123.12 11.2948 122.028 11.6587C120.973 12.0104 119.54 12.028 118.59 12.6124C118.362 12.7528 118.072 12.7874 117.822 12.8774C117.556 12.9733 117.23 13.2085 116.948 13.2085C116.375 13.2085 115.725 13.8064 115.166 13.9304C114.912 13.987 114.614 14.2872 114.338 14.3874C114.16 14.4521 113.714 14.559 113.583 14.6656C113.047 15.1046 112.342 15.3316 111.703 15.6193C111.099 15.8909 110.373 15.9309 109.802 16.2484C109.348 16.5005 108.513 16.9058 108.014 17.0167C106.725 17.3031 105.558 17.8373 104.378 18.4274C103.877 18.6779 103.419 18.9335 102.887 19.2288C102.356 19.5237 101.601 19.8021 101.159 20.1891C100.655 20.6301 100.017 20.9314 99.4633 21.315C99.1622 21.5234 98.866 21.7553 98.5361 21.9111C98.2666 22.0383 97.7912 22.1522 97.5824 22.3349C97.0694 22.7838 96.3953 22.9768 95.8869 23.4343C95.4285 23.8469 94.7434 23.9353 94.2709 24.3218C93.4225 25.016 92.0445 25.4188 91.0853 25.8451C90.6081 26.0572 90.0911 26.3519 89.5951 26.5868C89.2695 26.7411 88.956 27.0372 88.5885 27.0372C88.2138 27.0372 88.0289 27.4781 87.6877 27.5141C87.0911 27.5769 86.4919 28.0058 85.9592 28.2426C85.7827 28.321 85.3545 28.615 85.2108 28.7327C84.9588 28.9388 84.4892 29.1145 84.2968 29.3619C83.8956 29.8777 83.1859 30.1116 82.6808 30.5606C82.1524 31.0303 81.5245 31.3866 80.9191 31.8057C80.3992 32.1657 79.8982 32.6038 79.3362 32.9316C78.8397 33.2213 78.44 33.8277 77.8527 33.9582C77.4926 34.0382 76.5434 34.9311 76.336 35.2629C76.1278 35.5961 75.5264 36.1578 75.1704 36.3358"
                    stroke="#282423"
                    strokeLinecap="round"
                  />
                  <path
                    d="M75.1704 36.3359C74.3612 36.9244 73.7663 37.5016 73.0842 38.1837C72.7504 38.5175 72.2744 38.7907 72.0046 39.1374C71.7372 39.4813 71.1722 39.496 70.8721 39.8461C70.7812 39.9521 70.3743 40.1873 70.2297 40.27C70.071 40.3606 69.9728 40.5608 69.8058 40.6276C69.6266 40.6993 68.8432 41.4225 68.7462 41.6409C68.441 42.3275 67.6054 42.4914 67.0043 42.9589C66.6574 43.2287 66.2021 43.6181 65.8188 43.8199C65.3385 44.0727 65.0693 44.4983 64.6797 44.8663C64.0082 45.5004 63.5136 46.2691 62.7723 46.8532C61.8539 47.5767 60.9621 48.3454 60.1496 49.1579C59.8233 49.4842 59.2182 49.7665 58.9839 50.1646C58.7645 50.5378 58.3045 50.7117 58.0965 51.0654C57.8676 51.4545 57.3133 51.8088 56.9904 52.1316C56.6316 52.4905 55.8281 52.9735 55.6195 53.443C55.4194 53.8932 54.8607 54.3205 54.54 54.6947C54.1003 55.2077 53.8742 55.844 53.4141 56.3041C53.0354 56.6827 52.7688 57.2534 52.4074 57.675C51.9652 58.1909 51.5872 58.7002 51.0298 59.1718C50.1515 59.915 49.4797 60.9801 48.5263 61.6157C48.1099 61.8933 47.7588 62.5269 47.46 62.9072C47.0367 63.4459 46.596 63.9846 46.1553 64.5232C45.7894 64.9704 45.5078 65.6276 45.0692 66.0663C44.8135 66.322 44.5231 66.9242 44.228 67.0929C43.755 67.3632 43.5387 67.9676 43.1617 68.3446C42.7851 68.7212 42.5358 69.4242 42.0888 69.7222C41.5336 70.0923 41.4215 70.9062 40.9563 71.3249C40.5133 71.7237 40.1954 72.4869 39.8834 72.9939C39.3371 73.8817 38.7254 74.6848 38.2409 75.557C37.6607 76.6014 36.7409 77.3831 36.0686 78.3916C35.6344 79.0429 35.0713 79.5444 34.6645 80.2328C34.3153 80.8237 34.0087 81.3744 33.6578 81.9547C32.9571 83.1136 32.3768 84.3808 31.7504 85.5709C31.5111 86.0256 31.2778 86.4915 30.9954 86.9352C30.7313 87.3502 30.1687 88.1836 30.1146 88.6704C30.0067 89.641 29.0657 90.3472 28.9092 91.2865C28.8831 91.4428 28.7023 91.7967 28.6178 91.9488C28.5231 92.1191 28.2428 92.3846 28.2072 92.5448C28.1163 92.9535 27.784 93.4245 27.5449 93.7966C27.2701 94.224 26.5316 94.905 26.5316 95.4059C26.5316 95.6802 26.0547 96.3766 25.8825 96.5981C25.1356 97.5584 24.8077 98.7955 24.293 99.8764C23.8355 100.837 23.3444 101.785 22.9817 102.764C22.5248 103.997 22.0492 105.212 21.6173 106.46C21.202 107.66 20.6973 108.967 20.1205 110.062C19.6555 110.946 19.1194 112.067 18.8754 113.043C18.6872 113.796 18.357 114.511 18.1602 115.255C18.009 115.826 17.7279 116.149 17.4979 116.685C17.403 116.907 17.3456 117.195 17.2594 117.427C17.1169 117.812 16.9091 118.173 16.7826 118.566C16.6249 119.057 16.4436 119.556 16.3057 120.076C16.2087 120.443 16.057 120.957 15.8289 121.242C15.6938 121.411 15.4448 122.055 15.4448 122.288"
                    stroke="#282423"
                    strokeLinecap="round"
                  />
                  <path
                    d="M15.3291 122.49C15.002 122.94 14.8149 123.626 14.7155 124.172C14.6227 124.683 14.6002 125.564 14.3364 125.992C14.0748 126.417 14.062 127.044 13.9572 127.516C13.8265 128.104 13.4677 128.619 13.4677 129.246C13.4677 130.205 12.7762 131.09 12.7232 132.045C12.6986 132.488 12.2268 132.991 12.2268 133.472C12.2268 133.838 11.8806 134.928 11.6615 135.21C11.2967 135.679 11.3572 136.459 11.0824 137.009C10.8022 137.569 10.9334 138.283 10.6137 138.843C10.3326 139.335 10.2932 139.948 10.0621 140.476C9.86671 140.923 9.74503 141.433 9.74503 141.91C9.74503 142.421 9.52362 142.926 9.49685 143.462C9.45872 144.224 9.04307 144.984 9.00049 145.75C8.95847 146.507 8.67152 147.424 8.50412 148.177C8.32054 149.003 7.98181 149.825 7.87678 150.666C7.82112 151.111 7.57679 151.516 7.51829 151.955C7.45694 152.415 7.50156 152.835 7.35973 153.292C7.12197 154.058 7.08346 154.845 6.89095 155.616C6.72983 156.26 6.54344 156.788 6.51868 157.456C6.49309 158.147 6.05595 158.859 6.02231 159.566C5.99489 160.142 5.84704 160.968 5.65004 161.51C5.35397 162.324 5.31833 163.372 5.16057 164.24C4.91827 165.572 4.73944 166.955 4.43671 168.28C4.26877 169.014 4.32488 169.797 4.09891 170.52C3.96908 170.936 4.04133 171.394 3.94035 171.823C3.85958 172.166 3.78868 172.44 3.78868 172.802C3.78868 173.654 3.41641 174.495 3.41641 175.353C3.41641 175.997 3.29232 176.647 3.29232 177.311C3.29232 178.354 3.04414 179.387 3.04414 180.378C3.04414 181.599 3.04414 182.819 3.04414 184.039"
                    stroke="#282423"
                    strokeLinecap="round"
                  />
                  <path
                    d="M2.93032 184.129C2.93032 185.224 2.8347 186.354 2.8347 187.423C2.8347 188.664 2.54785 189.864 2.54785 191.109C2.54785 191.635 2.54785 192.161 2.54785 192.687C2.54785 193.21 2.35661 193.774 2.35661 194.307C2.35661 195.613 1.97414 196.931 1.97414 198.233C1.97414 198.829 1.78291 199.4 1.78291 199.981C1.78291 200.869 1.68729 201.756 1.68729 202.658C1.68729 203.357 1.59167 204.086 1.59167 204.804C1.59167 205.442 1.63615 206.093 1.5173 206.716C1.42659 207.193 1.54131 207.697 1.49074 208.177C1.44477 208.614 1.40044 209.025 1.40044 209.473C1.40044 210.221 1.40044 210.968 1.40044 211.715C1.40044 213.388 1.40044 215.062 1.40044 216.735C1.40044 218.361 1.59167 219.93 1.59167 221.558C1.59167 222.405 1.59167 223.251 1.59167 224.098C1.59167 224.854 1.50894 225.759 1.7351 226.483C1.99715 227.321 1.78291 228.481 1.78291 229.357C1.78291 230.343 1.75473 231.335 1.78291 232.321C1.82579 233.822 1.97414 235.379 1.97414 236.889C1.97414 237.681 2.16538 238.367 2.16538 239.152C2.16538 239.467 2.20259 239.768 2.3088 240.066C2.41774 240.371 2.3224 240.711 2.36193 241.027C2.60245 242.952 2.9622 244.913 3.30748 246.812C3.44801 247.585 3.53927 248.374 3.71651 249.15C3.81671 249.588 3.8865 249.993 3.8865 250.446C3.8865 250.868 4.06807 251.241 4.07773 251.657C4.10248 252.721 4.26897 253.766 4.26897 254.823C4.26897 255.752 4.46021 256.65 4.46021 257.564"
                    stroke="#282423"
                    strokeLinecap="round"
                  />
                  <path
                    d="M4.48223 257.587C4.93286 261.426 5.16467 265.288 6.12382 269.018C6.2932 269.677 6.54102 270.337 6.64505 271.013C6.74283 271.649 6.93437 272.394 7.12435 273.002C7.29209 273.539 7.25964 274.116 7.41791 274.65C7.86982 276.175 8.13039 277.864 8.37051 279.425C8.47568 280.108 8.7257 280.878 8.95765 281.528C9.1892 282.176 9.25942 282.932 9.4669 283.601C9.91527 285.045 10.2358 286.519 10.743 287.956C10.9068 288.42 10.8803 288.922 11.1085 289.346C11.2723 289.65 11.0411 290.069 11.2223 290.359C11.5676 290.911 11.6085 291.911 11.7915 292.551C11.9925 293.255 12.2843 293.957 12.4865 294.684C12.6876 295.408 13.081 296.38 13.481 297.009C13.8549 297.596 14.1286 298.576 14.1939 299.262C14.2826 300.193 14.9947 301.066 15.0507 302.018C15.0926 302.73 15.5377 303.587 15.7217 304.282C15.8585 304.799 15.9353 305.59 16.189 306.062C16.8854 307.355 17.3398 308.715 17.9384 310.046C18.2191 310.669 18.2673 311.359 18.6094 311.963C19.0906 312.812 19.157 313.793 19.6339 314.641C20.0992 315.468 20.4343 316.349 20.8142 317.217C20.9968 317.635 21.4847 318.284 21.5212 318.757C21.5545 319.191 22.0813 319.957 22.3 320.351C22.6942 321.06 23.1731 321.746 23.4563 322.501C23.9839 323.908 24.7019 325.28 25.4034 326.605C26.4763 328.632 27.635 330.745 28.6387 332.752"
                    stroke="#282423"
                    strokeLinecap="round"
                  />
                  <path
                    d="M28.6624 333.106C30.9844 337.149 33.2208 341.407 35.6469 345.26C35.9417 345.728 36.3381 346.14 36.7012 346.548C36.9978 346.882 37.3619 347.709 37.7555 347.866C37.9405 347.94 38.0169 348.311 38.2167 348.467C38.4352 348.637 38.5448 348.934 38.7439 349.133C39.2489 349.638 39.45 350.383 39.9372 350.897C40.3695 351.353 40.6242 351.961 40.9476 352.479C41.29 353.027 41.7878 353.525 42.1117 354.119C42.684 355.168 43.6376 356.063 44.2422 357.091C44.4733 357.484 45.0125 357.843 45.2379 358.204C45.5377 358.684 45.8423 359.248 46.2555 359.661C47.1818 360.587 47.9311 361.679 48.8253 362.626C49.2207 363.045 49.6803 363.45 49.9821 363.944C50.3464 364.54 51.0732 365.043 51.3365 365.657C51.4519 365.926 52.1956 366.694 52.4567 366.843C52.8841 367.087 53.2083 367.506 53.5695 367.831C54.0431 368.258 54.408 368.768 54.902 369.157C55.5991 369.704 56.3651 370.42 57.0252 371.031C58.025 371.957 59.1227 372.84 60.0196 373.886C60.4026 374.333 60.9222 374.813 61.4033 375.153C61.9889 375.566 62.3543 376.304 62.9554 376.727C63.5449 377.142 63.9167 377.976 64.5076 378.308C64.9972 378.584 65.5307 379.259 65.8913 379.699C66.3029 380.202 66.8379 380.724 67.3482 381.142C67.6417 381.382 67.9203 381.676 68.2561 381.859C68.5056 381.995 68.4526 382.22 68.7246 382.364C69.6799 382.87 70.1828 384.047 71.2285 384.495C72.1285 384.88 72.8956 386.053 73.7324 386.611"
                    stroke="#282423"
                    strokeLinecap="round"
                  />
                  <path
                    d="M198.524 378.444C200.16 378.444 201.776 378.561 203.431 378.561C204.094 378.561 204.756 378.561 205.418 378.561C206.308 378.561 207.107 378.327 207.988 378.327C208.506 378.327 208.976 378.21 209.507 378.21C209.925 378.21 210.406 378.282 210.793 378.12C211.149 377.97 211.809 378.094 212.188 378.094C212.719 378.094 213.187 377.86 213.714 377.86C214.094 377.86 214.654 377.701 215.012 377.561C215.552 377.351 216.119 377.508 216.635 377.302C217.039 377.14 217.451 377.244 217.862 377.152C218.269 377.062 218.541 376.925 218.979 376.925C219.861 376.925 220.682 376.458 221.549 376.458C222.455 376.458 223.579 376.31 224.412 375.932C225.222 375.564 226.143 375.508 226.918 375.12C227.299 374.93 227.877 374.924 228.294 374.796C228.728 374.662 229.1 374.545 229.54 374.465C229.872 374.405 230.26 374.146 230.566 374.121C230.915 374.092 231.505 373.965 231.832 373.822C232.643 373.467 233.605 373.335 234.461 373.18C235.453 372.999 236.344 372.498 237.323 372.31C237.911 372.197 238.367 371.96 238.953 371.81C239.52 371.664 240.024 371.28 240.589 371.109C241.525 370.825 242.44 370.218 243.419 370.148C244.025 370.105 244.591 369.665 245.204 369.57C245.754 369.486 246.163 369.168 246.665 369.006C247.199 368.833 247.66 368.466 248.177 368.272C248.466 368.164 249.12 367.901 249.352 367.694C249.944 367.169 250.857 366.931 251.52 366.617C253.509 365.675 255.758 364.885 257.674 363.721C259.866 362.391 261.963 360.984 264.133 359.58C264.903 359.082 265.729 358.648 266.529 358.204C266.982 357.952 267.41 357.5 267.872 357.295C268.558 356.99 269.268 356.3 269.859 355.841C270.49 355.35 271.189 354.936 271.845 354.426C272.517 353.903 273.225 353.155 273.955 352.738C276.602 351.225 278.353 349.354 280.399 347.308"
                    stroke="#282423"
                    strokeLinecap="round"
                  />
                  <path
                    d="M205.168 422.378C209.168 421.878 220.119 420.509 224.746 419.934C226.691 419.693 228.625 419.236 230.585 419.236C230.811 419.236 231.011 419.237 231.227 419.157C231.642 419.004 232.054 418.905 232.473 418.776C233.097 418.584 233.853 418.506 234.503 418.388C235.85 418.143 237.684 418.005 238.938 417.309C239.206 417.16 239.569 417.253 239.866 417.237C240.222 417.219 240.579 417.023 240.929 416.96C241.517 416.853 242.269 416.666 242.865 416.666C243.445 416.666 244.173 416.34 244.729 416.166C245.459 415.938 246.167 415.716 246.894 415.492C248.315 415.055 249.771 414.742 251.154 414.31C251.892 414.079 252.709 413.861 253.431 413.557C253.915 413.353 254.901 412.954 255.43 412.954C256.111 412.954 256.725 412.383 257.358 412.383C257.83 412.383 258.076 412.164 258.508 411.954C258.914 411.757 259.385 411.698 259.793 411.494C261.214 410.783 262.807 410.542 264.203 409.844C264.904 409.494 265.717 409.413 266.425 409.098C267.297 408.711 268.173 408.43 269.058 408.027C269.752 407.712 270.463 407.482 271.168 407.21C271.793 406.97 272.548 406.207 273.144 406.108C273.783 406.001 274.535 405.337 275.135 405.037C275.69 404.759 276.436 404.582 276.943 404.244C278.582 403.151 280.553 402.664 282.242 401.673C283.485 400.945 285.025 400.53 286.137 399.603C286.566 399.246 287.285 398.832 287.811 398.643C288.43 398.42 288.934 397.845 289.493 397.54C290.069 397.226 290.831 396.812 291.27 396.319C291.452 396.114 292.052 395.665 292.301 395.565C292.705 395.404 292.93 395.079 293.301 394.931C293.845 394.713 294.814 394.095 295.204 393.669C295.516 393.33 296.518 392.678 296.981 392.678"
                    stroke="#282423"
                    strokeLinecap="round"
                  />
                  <path
                    d="M297.089 392.789C301.613 389.1 306.118 385.385 310.7 381.769C311.033 381.507 311.338 381.202 311.706 380.992C311.9 380.881 312.047 380.758 312.209 380.611C312.358 380.476 312.68 380.055 312.865 380.032C313.504 379.952 314.051 378.802 314.617 378.553C315.121 378.332 315.766 377.565 316.157 377.151C316.602 376.68 317.36 376.317 317.696 375.779C317.932 375.402 318.665 374.956 319.068 374.682C319.651 374.285 320.191 373.549 320.745 373.203C321.344 372.829 321.653 372.203 322.192 371.832C322.776 371.431 323.441 370.512 323.907 369.942C324.415 369.321 325.14 368.785 325.546 368.09C325.938 367.417 326.693 366.928 326.994 366.177C327.233 365.579 327.845 364.762 328.289 364.317C328.69 363.916 329.581 363.123 329.745 362.549C329.788 362.397 330.359 361.971 330.492 361.795C330.702 361.515 331.1 361.361 331.246 361.033C331.501 360.458 332.315 359.653 332.824 359.257C333.293 358.892 333.663 357.981 334.203 357.672C334.786 357.339 334.95 356.437 335.499 356.163"
                    stroke="#282423"
                    strokeLinecap="round"
                  />
                  <path
                    d="M335.499 356.163C335.795 355.857 336.095 355.324 336.459 355.096C336.692 354.951 336.526 354.683 336.703 354.487C336.933 354.231 337.01 353.853 337.175 353.557C337.304 353.325 337.665 353.123 337.693 352.871C337.72 352.632 338.345 351.712 338.547 351.53C339 351.122 339.187 350.188 339.751 349.823C339.944 349.698 339.985 349.268 340.193 349.061C340.436 348.818 340.54 348.462 340.742 348.238C341.087 347.854 341.436 347.482 341.809 347.11C342.162 346.756 342.776 345.941 342.937 345.494C343.052 345.173 343.274 345.033 343.424 344.778C343.54 344.58 343.952 344.17 343.996 344.016C344.192 343.328 345.237 342.829 345.368 342.111C345.429 341.775 345.853 341.703 345.916 341.417C345.987 341.1 346.26 340.903 346.404 340.586C346.988 339.303 347.892 338.178 348.637 336.959C349.482 335.576 350.378 334.299 351.106 332.844C351.277 332.502 351.478 332.094 351.685 331.777C351.899 331.45 351.92 330.965 352.127 330.679C352.514 330.148 352.719 329.438 353.118 328.858C354.022 327.543 354.485 326.131 355.176 324.75C355.755 323.592 356.062 322.249 356.692 321.115C357.02 320.524 357.257 319.897 357.584 319.324C358.019 318.562 358.151 317.606 358.742 316.931C359.001 316.635 358.975 316.199 359.169 315.895C359.385 315.555 359.642 315.205 359.84 314.866C360.197 314.254 360.427 313.527 360.769 312.877C361.34 311.793 361.652 310.655 362.217 309.524C362.759 308.441 363.044 307.171 363.681 306.17C364.002 305.666 364.17 305.229 364.298 304.654C364.452 303.96 364.991 303.486 364.991 302.733C364.991 302.331 365.279 301.708 365.471 301.362C365.676 300.993 365.582 300.106 365.952 299.921"
                    stroke="#282423"
                    strokeLinecap="round"
                  />
                  <path
                    d="M365.925 300.011C366.006 299.594 366.112 299.065 366.314 298.702C366.429 298.495 366.445 298.219 366.495 297.994C366.553 297.733 366.774 297.586 366.774 297.286C366.774 297.166 366.907 296.82 366.971 296.739C367.092 296.588 367.119 296.216 367.183 296.032C367.379 295.465 367.583 294.93 367.749 294.349C367.835 294.05 367.863 293.662 368.013 293.393C368.089 293.257 368.029 293.082 368.064 292.933C368.106 292.756 368.19 292.624 368.19 292.437C368.19 292.112 368.281 291.837 368.434 291.553C368.547 291.342 368.492 290.995 368.65 290.806C368.988 290.4 368.845 289.684 369.11 289.237C369.39 288.763 369.28 288.124 369.48 287.624C369.587 287.355 369.585 287.043 369.676 286.771C369.765 286.506 369.889 286.167 369.889 285.89C369.889 285.657 370.052 285.349 370.105 285.112C370.168 284.828 370.254 284.547 370.317 284.262C370.341 284.156 370.473 284.008 370.526 283.908C370.605 283.758 370.596 283.603 370.667 283.448C370.796 283.167 370.79 282.814 370.95 282.544C371.294 281.964 371.2 281.211 371.556 280.633C371.69 280.415 371.755 279.926 371.796 279.661C371.835 279.406 371.897 279.15 371.945 278.887C372.042 278.354 372.239 277.806 372.401 277.286C372.587 276.693 372.766 276.128 372.791 275.505C372.814 274.914 373.145 274.34 373.145 273.751"
                    stroke="#282423"
                    strokeLinecap="round"
                  />
                  <path
                    d="M205.745 422.394C206.337 422.49 206.913 422.535 207.51 422.535C208.069 422.535 208.603 422.677 209.142 422.677C209.685 422.677 210.227 422.677 210.77 422.677C211.045 422.677 211.347 422.642 211.62 422.681C211.829 422.711 212.045 422.818 212.257 422.818C213.506 422.818 214.801 422.96 216.063 422.96C217.442 422.96 218.821 422.96 220.2 422.96C222.736 422.96 225.244 422.889 227.774 422.889C228.35 422.889 228.939 422.818 229.5 422.818C229.912 422.818 230.294 422.798 230.699 422.744C231.074 422.694 231.561 422.763 231.918 422.661C232.583 422.471 233.32 422.543 233.987 422.358C234.661 422.171 235.452 422.252 236.149 422.252C236.868 422.252 237.586 422.252 238.304 422.252C238.686 422.252 239.071 422.265 239.453 422.252C239.839 422.239 240.214 422.111 240.601 422.111C240.933 422.111 241.264 422.111 241.596 422.111C241.727 422.111 241.862 422.048 241.985 422.004C242.175 421.937 242.376 422.006 242.567 421.953C243.421 421.718 244.348 421.842 245.198 421.584C245.955 421.353 246.709 421.143 247.506 421.12C247.826 421.11 248.208 421.011 248.528 420.962C249.027 420.887 249.651 420.948 250.121 420.801C250.464 420.694 250.901 420.624 251.258 420.624C251.752 420.624 252.239 420.435 252.728 420.412C253.449 420.378 254.309 420.159 254.978 419.916C255.649 419.672 256.564 419.562 257.274 419.562C257.659 419.562 258.133 419.557 258.509 419.476C258.964 419.377 259.432 419.434 259.893 419.35C260.715 419.201 261.563 419.112 262.37 418.91C263.208 418.7 264.045 418.556 264.883 418.359C266.089 418.075 267.389 418.005 268.568 417.612C269.055 417.449 269.547 417.3 270.015 417.085C270.396 416.91 270.831 416.913 271.218 416.763C271.777 416.545 272.372 416.211 272.972 416.165C273.575 416.119 274.218 415.599 274.828 415.599"
                    stroke="#282423"
                    strokeLinecap="round"
                  />
                  <path
                    d="M274.731 415.612C276.881 414.963 279.264 414.43 281.331 413.559C281.519 413.48 281.707 413.429 281.89 413.328C282.284 413.109 282.709 413.1 283.103 412.921C283.422 412.776 283.875 412.566 284.225 412.566C284.689 412.566 285.1 412.16 285.546 412.16C286.039 412.16 286.442 411.814 286.916 411.675C287.349 411.548 287.993 411.472 288.361 411.246C289.192 410.734 290.329 410.555 291.227 410.152C291.447 410.052 291.735 410.043 291.971 409.948C292.127 409.886 292.483 409.767 292.597 409.672C292.948 409.38 293.69 409.302 294.132 409.164C295.135 408.851 296.271 408.498 297.223 407.996C299.478 406.81 302.152 406.268 304.281 404.747C305.026 404.214 305.946 403.981 306.695 403.472C307.506 402.921 308.491 402.626 309.335 402.107C309.749 401.852 310.328 401.652 310.785 401.452C311.215 401.264 311.604 401.046 312.01 400.843C312.496 400.6 312.949 400.459 313.369 400.132C313.722 399.858 314.169 399.733 314.486 399.416C314.764 399.138 315.347 398.709 315.733 398.575C316.167 398.425 316.565 398.08 317.019 397.864C318.051 397.376 319.084 396.674 320.043 396.071C320.953 395.498 321.767 394.811 322.661 394.265C323.363 393.836 323.829 393.044 324.59 392.663"
                    stroke="#282423"
                    strokeLinecap="round"
                  />
                  <path
                    d="M324.727 392.657C326.378 391.437 328.723 390.065 330.032 388.611C330.306 388.306 330.75 388.081 331.108 387.902C331.537 387.687 331.92 387.021 332.428 386.936C332.78 386.877 333.573 386.188 333.859 385.946C335.717 384.366 337.457 382.811 339.225 381.19C340.153 380.34 341.042 379.346 342.086 378.623C343.067 377.944 344.082 377.104 344.922 376.263C345.288 375.898 346.009 375.442 346.267 375.004C346.582 374.468 347.263 374.175 347.587 373.623C348.117 372.723 349.006 372.081 349.592 371.202"
                    stroke="#282423"
                    strokeLinecap="round"
                  />
                  <path
                    d="M349.637 371.329C352.657 368.231 355.637 365.316 358.461 362.326C358.962 361.795 359.482 361.209 359.941 360.625C360.409 360.029 361.007 359.574 361.432 358.924C362.429 357.4 363.674 356.053 364.723 354.562C365.775 353.068 366.883 351.559 367.734 349.951C367.833 349.764 367.984 349.69 368.095 349.52C368.206 349.349 368.218 349.155 368.365 349C368.711 348.634 368.939 348.191 369.22 347.785C369.752 347.017 370.248 346.111 370.866 345.419C371.182 345.065 371.423 344.554 371.696 344.158C372.037 343.664 372.317 343.163 372.686 342.688C372.961 342.335 373.299 341.781 373.407 341.352C373.526 340.876 374.058 340.496 374.127 340.017C374.159 339.79 374.515 339.125 374.667 338.956C374.931 338.664 375.125 338.31 375.337 337.976C375.723 337.37 375.958 336.634 376.378 336.015C376.735 335.488 376.991 334.905 377.328 334.374C377.517 334.077 377.735 333.767 377.908 333.464C378.028 333.254 378.056 332.99 378.269 332.884"
                    stroke="#282423"
                    strokeLinecap="round"
                  />
                  <path
                    d="M378.272 332.903C379.173 331.357 380.003 329.711 381.016 328.232C381.115 328.087 381.256 327.955 381.331 327.796C381.49 327.458 381.69 327.143 381.849 326.806C382.056 326.369 382.245 325.912 382.405 325.463C382.726 324.567 383.35 323.775 383.699 322.87C383.802 322.604 383.946 322.299 383.995 322.018C384.046 321.723 384.252 321.474 384.341 321.185C384.452 320.823 384.72 320.544 384.845 320.184C384.963 319.844 385.213 319.634 385.281 319.263C385.339 318.941 385.536 318.534 385.771 318.298"
                    stroke="#282423"
                    strokeLinecap="round"
                  />
                  <path
                    d="M385.95 318.162C386.78 316.378 387.57 314.529 388.484 312.792C388.576 312.619 388.676 312.404 388.798 312.247C389.166 311.774 389.334 311.168 389.601 310.634C389.844 310.149 389.949 309.62 390.169 309.136C390.406 308.613 390.664 308.095 390.878 307.561C391.002 307.252 391.13 306.875 391.299 306.592C391.467 306.313 391.587 305.908 391.804 305.664C391.92 305.534 392.005 305.252 392.055 305.081C392.08 304.996 392.16 304.892 392.226 304.836C392.287 304.784 392.309 304.647 392.349 304.576C392.394 304.495 392.389 304.426 392.419 304.345C392.443 304.276 392.552 304.228 392.569 304.17C392.596 304.076 392.679 303.775 392.773 303.717C392.877 303.652 392.875 303.455 392.997 303.385C393.127 303.31 393.172 303.105 393.298 303.021"
                    stroke="#282423"
                    strokeLinecap="round"
                  />
                  <path
                    d="M73.6313 386.708C76.2198 388.527 78.7821 390.531 81.4508 392.211C81.5895 392.299 81.8164 392.374 81.9288 392.466C82.2349 392.717 82.6296 392.849 82.9275 393.093C83.4768 393.543 84.3879 393.94 85.1055 394.219C85.4954 394.371 85.8602 394.635 86.2104 394.836C86.3157 394.896 86.507 395.093 86.5929 395.117C86.8386 395.187 86.83 395.384 87.0178 395.484C87.5989 395.791 88.3499 396.353 88.9196 396.801C89.5837 397.323 90.2013 397.865 91.055 398.161C91.4569 398.3 92.0717 398.52 92.4468 398.756C92.681 398.903 93.2956 399.051 93.4242 399.276C93.5488 399.494 94.1339 399.586 94.2848 399.85C94.4009 400.053 95.2042 400.33 95.4322 400.456C96.3951 400.985 97.4719 401.584 98.5398 401.821C99.0551 401.935 99.8522 402.401 100.261 402.719C100.997 403.291 102.034 403.672 102.816 404.153C103.601 404.636 104.574 405.273 105.515 405.444C106.084 405.547 107.029 405.739 107.48 406.118C107.662 406.271 108.394 406.572 108.627 406.597C109.098 406.646 109.567 407.197 110.019 407.361C110.348 407.481 110.772 407.657 111.029 407.882C111.413 408.219 112.043 408.068 112.452 408.413C112.752 408.666 113.334 408.742 113.695 408.913C114.244 409.173 114.914 409.447 115.411 409.794C115.688 409.988 116.32 409.997 116.649 410.044C117.057 410.102 117.502 410.325 117.902 410.442C118.871 410.727 119.87 411.202 120.75 411.717C121.799 412.333 122.989 412.604 124.112 412.955C126.255 413.625 128.496 414.274 130.72 414.873C131.86 415.18 133.02 415.353 134.157 415.606C134.756 415.739 135.338 415.931 135.932 416.084C136.12 416.132 136.254 416.158 136.452 416.158C136.698 416.158 136.774 416.306 136.983 416.344C138.23 416.571 139.557 417.079 140.851 417.114C141.98 417.146 143.076 417.749 144.197 417.874C144.888 417.951 145.556 418.175 146.248 418.267C146.785 418.339 147.333 418.644 147.879 418.644C148.266 418.644 149.063 418.628 149.414 418.788C149.621 418.882 149.901 418.836 150.126 418.836C150.371 418.836 150.548 419.013 150.795 419.027C151.536 419.069 152.332 419.389 153.068 419.526C153.771 419.657 154.378 419.792 155.098 419.792C155.754 419.792 156.298 420.103 156.92 420.222C157.642 420.361 158.341 420.512 159.039 420.727C159.532 420.878 160.22 420.924 160.739 420.939C161.461 420.96 162.147 421.274 162.837 421.46C163.43 421.619 164.08 421.569 164.665 421.752C165.359 421.969 166.253 422.074 166.976 422.087C167.847 422.101 168.72 422.278 169.6 422.278C170.388 422.278 171.155 422.29 171.932 422.368C173.471 422.522 175.06 422.469 176.612 422.469"
                    stroke="#282423"
                    strokeLinecap="round"
                  />
                  <path
                    d="M176.562 422.488C177.612 422.488 178.661 422.488 179.711 422.488C180.255 422.488 180.79 422.462 181.322 422.577C181.592 422.636 181.92 422.588 182.197 422.588C182.383 422.588 182.517 422.689 182.698 422.689C182.861 422.689 183.024 422.689 183.187 422.689C184.534 422.689 185.881 422.689 187.228 422.689C187.851 422.689 188.473 422.689 189.096 422.689C189.5 422.689 189.903 422.689 190.307 422.689C190.696 422.689 191.08 422.606 191.468 422.642C192.238 422.712 193.009 422.702 193.777 422.787C194.375 422.853 195.01 422.79 195.612 422.79C196.404 422.79 197.186 422.84 197.978 422.84C198.239 422.84 198.5 422.848 198.761 422.84C199.046 422.832 199.424 422.831 199.706 422.779C199.977 422.728 200.246 422.739 200.523 422.739C200.834 422.739 201.131 422.689 201.434 422.689C202.02 422.689 202.612 422.588 203.191 422.588C204.046 422.588 204.919 422.538 205.758 422.538"
                    stroke="#282423"
                    strokeLinecap="round"
                  />
                  <path
                    d="M214.899 2.30762C214.902 2.30762 214.907 2.30771 214.912 2.30791L236.899 2.80762L247.399 3.80762L257.399 4.80762L263.899 6.80762H268.399L271.899 8.30762L279.899 10.3076L285.399 12.3076L291.399 14.3076L300.399 17.3076L306.899 21.3076L313.899 23.8076L322.899 29.8076L335.399 39.3076L351.399 53.8076L362.899 67.8076L371.399 78.8076L377.399 89.3076L385.899 104.808L390.899 118.308L395.899 132.808L398.899 143.808L401.899 157.308L403.399 168.308L405.399 179.308L405.899 192.808L406.899 206.808V221.308L406.399 233.808L405.399 239.808L404.399 249.308L403.399 257.308L401.399 270.308L398.399 280.808L394.899 295.808L393.399 300.808L392.399 302.808L389.899 308.308L381.399 326.308L375.899 335.808L367.899 349.308L360.399 359.308L353.399 366.808L346.399 373.808L340.399 379.308L334.399 384.808L324.399 391.808L317.399 396.808L309.399 401.308L301.399 405.308L293.399 408.808L281.899 412.808L271.399 416.308L262.399 418.308L255.399 419.308L245.399 421.308L237.899 421.808L231.399 422.308H210.899L230.399 419.808L238.899 417.808L245.399 416.808L256.399 413.308L272.399 406.808L282.399 401.808L288.399 398.808L292.899 395.308L296.399 393.308L296.899 393.808L311.399 381.808L321.899 373.308L330.399 362.308L337.899 353.308L343.399 345.808L350.899 334.308L356.899 321.308L362.399 311.308L365.399 302.808L369.399 289.308L372.899 276.808L374.399 268.808L375.899 260.308L377.899 246.808L378.899 236.308L379.399 222.308V214.808L379.899 209.808L379.399 197.808L378.899 186.308L377.399 170.808L376.399 164.808L374.399 151.808L371.899 142.808L369.899 134.308L366.899 125.808L364.399 117.808L361.399 109.308L357.899 102.308L351.899 90.8076L345.899 79.3076L341.399 71.8076L335.899 64.8076L331.399 60.3076L325.899 53.8076L319.399 47.8076L310.899 40.8076L305.399 36.3076L298.399 31.3076L291.399 26.8076L286.399 23.8076L275.899 18.8076L267.899 14.8076L264.399 13.8076L261.399 11.8076L257.899 11.3076L252.399 9.30762L247.399 8.30762L243.899 6.80762L238.399 5.30762L233.399 4.30762C227.45 3.64665 215.505 2.33038 214.912 2.30791L214.899 2.30762Z"
                    fill="#282423"
                  />
                  <path
                    d="M214.899 2.30762C215.299 2.30762 227.399 3.64095 233.399 4.30762L238.399 5.30762L243.899 6.80762L247.399 8.30762L252.399 9.30762L257.899 11.3076L261.399 11.8076L264.399 13.8076L267.899 14.8076L275.899 18.8076L286.399 23.8076L291.399 26.8076L298.399 31.3076L305.399 36.3076L310.899 40.8076L319.399 47.8076L325.899 53.8076L331.399 60.3076L335.899 64.8076L341.399 71.8076L345.899 79.3076L351.899 90.8076L357.899 102.308L361.399 109.308L364.399 117.808L366.899 125.808L369.899 134.308L371.899 142.808L374.399 151.808L376.399 164.808L377.399 170.808L378.899 186.308L379.399 197.808L379.899 209.808L379.399 214.808V222.308L378.899 236.308L377.899 246.808L375.899 260.308L374.399 268.808L372.899 276.808L369.399 289.308L365.399 302.808L362.399 311.308L356.899 321.308L350.899 334.308L343.399 345.808L337.899 353.308L330.399 362.308L321.899 373.308L311.399 381.808L296.899 393.808L296.399 393.308L292.899 395.308L288.399 398.808L282.399 401.808L272.399 406.808L256.399 413.308L245.399 416.808L238.899 417.808L230.399 419.808L210.899 422.308H231.399L237.899 421.808L245.399 421.308L255.399 419.308L262.399 418.308L271.399 416.308L281.899 412.808L293.399 408.808L301.399 405.308L309.399 401.308L317.399 396.808L324.399 391.808L334.399 384.808L340.399 379.308L346.399 373.808L353.399 366.808L360.399 359.308L367.899 349.308L375.899 335.808L381.399 326.308L389.899 308.308L392.399 302.808L393.399 300.808L394.899 295.808L398.399 280.808L401.399 270.308L403.399 257.308L404.399 249.308L405.399 239.808L406.399 233.808L406.899 221.308V206.808L405.899 192.808L405.399 179.308L403.399 168.308L401.899 157.308L398.899 143.808L395.899 132.808L390.899 118.308L385.899 104.808L377.399 89.3076L371.399 78.8076L362.899 67.8076L351.399 53.8076L335.399 39.3076L322.899 29.8076L313.899 23.8076L306.899 21.3076L300.399 17.3076L291.399 14.3076L285.399 12.3076L279.899 10.3076L271.899 8.30762L268.399 6.80762H263.899L257.399 4.80762L247.399 3.80762L236.899 2.80762L214.899 2.30762Z"
                    stroke="#282423"
                  />
                  <path
                    d="M177.899 45.8076L200.399 45.3076L197.899 45.8076L190.899 46.8076L183.899 47.8076L177.399 49.3076L171.399 50.8076L163.899 53.3076L158.399 55.8076L152.399 58.3076L147.899 61.3076L141.899 64.3076L138.206 67.3076L134.899 70.3076L128.899 74.3076L120.399 83.3076L113.399 92.3076L106.899 100.808L99.3989 113.308L93.8989 128.308L89.8989 139.808L85.8989 155.808L82.8989 172.308L81.3989 186.308L80.3989 200.308V214.308L79.8989 225.308L81.8989 248.308L83.8989 261.308L85.3989 272.308L89.3989 286.308L92.8989 296.308L97.3989 308.308L104.899 321.308L110.899 330.808L114.899 335.308L117.899 340.808L123.399 345.308L132.899 353.808L140.899 360.308L146.899 363.308L154.899 367.308L163.399 370.808L169.899 373.308L179.899 375.808L193.399 378.308L183.899 378.808L174.399 377.808L164.399 376.808L153.899 374.808L144.399 372.308L136.399 369.808L129.399 367.308L110.399 356.308L103.399 350.808L96.8989 345.308L91.8989 339.808L87.8989 335.808L83.3989 330.808L78.3989 322.808L73.8989 314.308L70.8989 307.808L67.3989 298.808L64.3989 289.308L62.8989 283.308L58.8989 270.308L56.8989 260.808L55.8989 249.308L55.3989 243.808L54.3989 235.308L53.8989 228.308V220.308V213.808L53.3989 208.808V204.808L53.8989 199.808V186.808L54.8989 179.308L55.3989 172.808L57.3989 165.808L58.3989 159.808L59.8989 154.808L63.3989 140.808L65.8989 132.808L67.3989 128.308L70.8989 120.808L76.3989 108.808L81.8989 99.3076L86.3989 93.3076L88.8989 89.3076L94.3989 82.8076L101.399 76.3076L105.899 72.3076L112.399 67.3076L121.399 61.3076L129.899 56.8076L138.399 53.3076L149.399 50.3076L161.399 47.8076L177.899 45.8076Z"
                    fill="#282423"
                    stroke="#282423"
                  />
                </svg>