<svg
                  width="355"
                  height="424"
                  viewBox="0 0 355 424"
                  fill="none"
                  xmlns="http://www.w3.org/2000/svg"
                >
                  <g opacity="0.3">
                    <path
                      d="M141.278 422.089L140.778 422.089L140.778 422.589L141.278 422.589L141.278 422.089ZM141.277 65.7065L141.777 65.7065L141.777 65.2065L141.277 65.2065L141.277 65.7065ZM1.52246 65.7065L1.02246 65.7065L1.02246 66.2065L1.52246 66.2065L1.52246 65.7065ZM1.52246 26.4202L1.17809 26.0577L1.02246 26.2055L1.02246 26.4202L1.52246 26.4202ZM327.056 65.7065L327.056 66.2065L327.256 66.2065L327.401 66.069L327.056 65.7065ZM187.863 65.7065L187.863 65.2065L187.363 65.2065L187.363 65.7065L187.863 65.7065ZM187.863 422.089L187.863 422.589L188.062 422.589L188.207 422.452L187.863 422.089ZM27.9886 1.27734L27.9886 0.777342L27.789 0.777342L27.6443 0.914843L27.9886 1.27734ZM353.522 1.27733L354.022 1.27733L354.022 0.777325L353.522 0.777325L353.522 1.27733ZM353.522 40.5636L353.867 40.9261L354.022 40.7783L354.022 40.5636L353.522 40.5636ZM214.329 396.947L214.673 397.309L214.829 397.161L214.829 396.947L214.329 396.947ZM141.778 422.089L141.777 65.7065L140.777 65.7065L140.778 422.089L141.778 422.089ZM141.277 65.2065L1.52246 65.2065L1.52246 66.2065L141.277 66.2065L141.277 65.2065ZM2.02246 65.7065L2.02246 26.4202L1.02246 26.4202L1.02246 65.7065L2.02246 65.7065ZM1.52246 26.9202L327.056 26.9202L327.056 25.9202L1.52246 25.9202L1.52246 26.9202ZM326.556 26.4202L326.556 65.7065L327.556 65.7065L327.556 26.4202L326.556 26.4202ZM327.056 65.2065L187.863 65.2065L187.863 66.2065L327.056 66.2065L327.056 65.2065ZM187.363 65.7065L187.363 422.089L188.363 422.089L188.363 65.7065L187.363 65.7065ZM187.863 421.589L141.278 421.589L141.278 422.589L187.863 422.589L187.863 421.589ZM27.9886 1.77734L353.522 1.77733L353.522 0.777325L27.9886 0.777342L27.9886 1.77734ZM353.022 1.27733L353.022 40.5636L354.022 40.5636L354.022 1.27733L353.022 1.27733ZM213.829 65.7065L213.829 396.947L214.829 396.947L214.829 65.7065L213.829 65.7065ZM1.86684 26.7827L28.333 1.63984L27.6443 0.914843L1.17809 26.0577L1.86684 26.7827ZM327.401 26.7827L353.867 1.63983L353.178 0.914826L326.712 26.0577L327.401 26.7827ZM327.401 66.069L353.867 40.9261L353.178 40.2011L326.712 65.344L327.401 66.069ZM188.207 422.452L214.673 397.309L213.984 396.584L187.518 421.727L188.207 422.452Z"
                      fill="#282423"
                    />
                    <path
                      d="M187.862 422.089L187.862 65.7065L214.329 65.7065L214.329 396.947L187.862 422.089Z"
                      fill="#282423"
                      stroke="#282423"
                    />
                    <path
                      d="M327.056 65.7065L327.056 26.4202L353.523 1.27734L353.523 40.5636L327.056 65.7065Z"
                      fill="#282423"
                      stroke="#282423"
                      strokeLinejoin="round"
                    />
                  </g>
                  <path
                    d="M1.66162 26.3413C5.37059 22.8618 9.0746 19.377 12.7887 15.903C12.7921 15.8998 13.3215 15.4365 13.5409 15.2171C13.6164 15.1416 13.7119 15.0581 13.7772 14.975C13.8971 14.8225 14.0727 14.703 14.2268 14.5946C14.5669 14.3553 14.8418 14.0481 15.149 13.7848C15.5029 13.4815 15.7766 13.0563 16.1087 12.7242C16.2731 12.5599 16.4314 12.3934 16.6015 12.2314C16.7792 12.0621 17.0233 11.9539 17.1721 11.753C17.3037 11.5754 17.5269 11.3976 17.6938 11.2516C17.9443 11.0324 18.2039 10.8365 18.4459 10.5945C18.6313 10.4091 18.8164 10.2121 19.0396 10.0757C19.1706 9.99567 19.2106 9.84944 19.3278 9.75296C19.4478 9.65414 19.5593 9.56342 19.6909 9.47918C19.9249 9.32943 20.0667 9.0814 20.2961 8.91144C20.3864 8.84454 20.5806 8.67726 20.6362 8.57714C20.7349 8.39942 20.94 8.31543 21.031 8.13332C21.1576 7.88016 21.3456 7.66675 21.5008 7.41284C21.7733 6.96685 22.013 6.55524 22.3625 6.16209C22.526 5.97814 22.7422 5.83135 22.9187 5.65487C23.0618 5.51171 23.2801 5.43122 23.3971 5.26869C23.5165 5.10286 23.757 5.03484 23.9158 4.91133C24.0931 4.77343 24.2994 4.60407 24.4576 4.45023C24.8716 4.04774 25.4649 3.77321 25.8381 3.3378C25.9176 3.24505 26.0918 3.15507 26.1983 3.08996C26.3477 2.99869 26.4626 2.79108 26.5874 2.66632C26.8561 2.39756 27.0312 2.19193 27.3799 2.05247C27.5591 1.98078 27.8277 1.76452 27.9102 1.62018C27.9928 1.47563 28.1911 1.24916 28.3252 1.18213"
                    stroke="#282423"
                    strokeLinecap="round"
                  />
                  <path
                    d="M1.60207 26.8765C1.48042 33.6356 1.36124 40.3771 1.36124 47.1328C1.36124 47.6745 1.60207 48.1648 1.60207 48.6714C1.60207 49.2333 1.60207 49.7953 1.60207 50.3572C1.60207 51.4632 1.60207 52.5692 1.60207 53.6753C1.60207 54.3561 1.36124 54.9615 1.36124 55.6487C1.36124 56.1103 1.36124 56.5719 1.36124 57.0335C1.36124 58.1997 1.24083 59.3133 1.24083 60.472C1.24083 62.3583 1 64.2299 1 66.1314"
                    stroke="#282423"
                    strokeLinecap="round"
                  />
                  <path
                    d="M1.12061 66.3715C3.09689 66.3715 5.11927 65.7346 7.13462 66.0705C8.36667 66.2758 9.73774 66.1307 10.9879 66.1307C12.4574 66.1307 13.9269 66.1307 15.3964 66.1307C16.1159 66.1307 16.7756 65.8899 17.4902 65.8899C18.3911 65.8899 19.292 65.8899 20.1928 65.8899C21.3992 65.8899 22.6056 65.8899 23.812 65.8899C26.703 65.8899 29.762 65.6167 32.6289 65.9501C35.6979 66.3069 38.9753 66.0103 42.0614 66.0103C45.5431 66.0103 49.0469 66.2511 52.5374 66.2511C55.8851 66.2511 59.1807 65.8899 62.5318 65.8899C65.9256 65.8899 69.3195 65.8899 72.7134 65.8899C79.5463 65.8899 86.3487 66.0103 93.1771 66.0103C98.6694 66.0103 104.135 66.2511 109.66 66.2511C112.646 66.2511 115.632 66.2511 118.618 66.2511C120.844 66.2511 123.022 65.8899 125.267 65.8899C126.667 65.8899 128.088 65.8201 129.455 65.7694C130.212 65.7414 130.941 65.649 131.703 65.649C132.948 65.649 134.145 65.4082 135.382 65.4082C137.55 65.4082 139.717 65.4082 141.885 65.4082"
                    stroke="#282423"
                    strokeLinecap="round"
                  />
                  <path
                    d="M1.98682 26.5815C16.7907 26.7007 31.5608 26.8148 46.3256 26.8148C49.5884 26.8148 52.8511 26.8148 56.1139 26.8148C58.8785 26.8148 62.6451 27.414 65.2798 26.6333C66.5405 26.2598 68.3235 26.5815 69.6618 26.5815C71.451 26.5815 73.2401 26.5815 75.0292 26.5815C76.4293 26.5815 77.8295 26.5815 79.2297 26.5815C81.0658 26.5815 83.1453 26.2692 84.9341 26.5944C88.2658 27.2002 92.0131 27.0482 95.4484 27.0482C98.4172 27.0482 101.386 27.0482 104.355 27.0482C108.236 27.0482 112.116 27.0482 115.997 27.0482C118.953 27.0482 121.867 26.5815 124.852 26.5815C128.308 26.5815 131.663 26.8148 135.12 26.8148C138.658 26.8148 142.807 27.8183 146.256 26.8667C147.302 26.5784 148.577 27.1519 149.575 26.6981C150.134 26.4441 151.189 26.3774 151.805 26.3481C153.698 26.258 155.615 26.3481 157.51 26.3481C161.088 26.3481 164.666 26.3481 168.244 26.3481C173.542 26.3481 178.778 26.1147 184.113 26.1147C186.345 26.1147 188.524 26.1137 190.738 26.3351C191.952 26.4566 193.192 26.2035 194.394 26.4648C197.794 27.2039 201.42 26.3571 204.856 26.9963C207.465 27.4817 210.595 27.0482 213.231 27.0482C216.728 27.0482 220.107 26.5815 223.577 26.5815C237.227 26.5815 250.944 26.3481 264.623 26.3481C270.887 26.3481 277.181 26.5815 283.473 26.5815C288.847 26.5815 294.15 26.1147 299.498 26.1147C308.792 26.1147 318.029 26.3481 327.294 26.3481"
                    stroke="#282423"
                    strokeLinecap="round"
                  />
                  <path
                    d="M187.492 65.7857C201.149 65.7857 214.807 65.7857 228.464 65.7857C230.834 65.7857 233.203 65.7857 235.572 65.7857C238.804 65.7857 242.194 65.4768 245.397 65.9343C248.444 66.3696 251.598 66.1677 254.669 66.1677C256.547 66.1677 258.614 66.3517 260.44 65.9343C262.937 65.3636 265.49 65.6891 268.036 65.5948C270.45 65.5054 272.969 65.4038 275.442 65.4038C278.238 65.4038 280.958 65.7857 283.738 65.7857C286.475 65.7857 289.212 65.7857 291.95 65.7857C296.828 65.7857 301.753 65.9767 306.654 65.9767C313.529 65.9767 320.403 65.9767 327.278 65.9767"
                    stroke="#282423"
                    strokeLinecap="round"
                  />
                  <path
                    d="M326.704 26.7144C326.778 30.7933 327.004 34.8967 326.81 38.9682C326.789 39.4168 326.704 39.8621 326.704 40.3086C326.704 40.8354 326.603 41.3582 326.603 41.8948C326.603 43.1352 326.402 44.3066 326.402 45.5363C326.402 47.9417 326.402 50.347 326.402 52.7524C326.402 53.875 326.402 54.9976 326.402 56.1202C326.402 57.4309 326.201 58.7536 326.201 60.0354C326.201 61.0485 325.981 62.3355 326.251 63.3083C326.475 64.1124 326.603 64.9898 326.603 65.8216"
                    stroke="#282423"
                    strokeLinecap="round"
                  />
                  <path
                    d="M326.804 26.1115C327.542 25.591 328.191 24.9916 328.91 24.4527C329.238 24.2065 329.633 23.8857 329.921 23.5982C330.165 23.3539 330.605 23.1917 330.803 22.8945C331.134 22.3983 331.806 22.0517 332.032 21.487C332.087 21.3494 332.243 21.3897 332.334 21.2636C332.497 21.0369 332.644 20.8417 332.836 20.638C333.197 20.2549 333.573 19.9017 333.942 19.5322C336.096 17.378 338.012 15.0764 340.426 13.1986C341.597 12.2883 343.068 11.3757 344.09 10.1826C344.51 9.69289 345.319 9.41338 345.682 8.81985C345.806 8.61672 346.345 8.24752 346.559 8.11612C346.941 7.88083 347.162 7.3902 347.564 7.21133C348.038 7.00095 348.417 6.37221 348.765 6.00493C349.008 5.74875 349.294 5.53204 349.547 5.27886C349.739 5.08673 350.044 4.72826 350.273 4.59747C350.438 4.50344 350.836 4.19638 350.938 4.04454C351.341 3.43883 352.132 3.09588 352.641 2.58682C352.879 2.34913 353.747 1.79719 353.747 1.48096"
                    stroke="#282423"
                    strokeLinecap="round"
                  />
                  <path
                    d="M327.307 65.7212C327.515 65.4635 327.9 64.8112 328.212 64.6376C328.364 64.5531 328.698 64.2587 328.793 64.1126C329.171 63.5281 329.932 63.2146 330.368 62.6549C330.755 62.1573 331.156 61.6754 331.574 61.1972C331.963 60.7529 332.541 60.2384 332.859 59.6892C333.052 59.355 333.518 59.1489 333.797 58.8849C334.192 58.5105 334.751 58.2835 335.193 57.9578C335.93 57.4151 336.71 56.9218 337.366 56.2655C338.616 55.0154 339.936 53.8961 341.181 52.6519C341.701 52.1316 342.343 51.7064 342.89 51.1886C343.466 50.6427 344.349 50.2937 344.889 49.6862C345.776 48.6889 346.974 48.0646 347.916 47.1226C348.433 46.6058 349.048 46.2092 349.57 45.7151C349.932 45.3719 350.418 45.1018 350.687 44.6539C350.881 44.3304 351.243 43.9783 351.541 43.7547C352.18 43.2755 352.636 42.4928 353.245 41.9451C353.658 41.5731 353.952 41.1361 354.25 40.6885"
                    stroke="#282423"
                    strokeLinecap="round"
                  />
                  <path
                    d="M354.149 40.4876C354.149 38.7271 354.049 36.9472 354.049 35.165C354.049 33.4563 354.149 31.7791 354.149 30.0769C354.149 28.1351 354.149 26.1934 354.149 24.2516C354.149 22.6624 354.387 20.7832 354.043 19.2361C353.792 18.1078 353.948 16.7297 353.948 15.5332C353.948 13.5039 353.948 11.4746 353.948 9.44534C353.948 8.69746 354.149 8.01002 354.149 7.26154C354.149 6.53361 354.149 5.80568 354.149 5.07775C354.149 4.40577 354.25 3.74166 354.25 3.03916C354.25 2.45029 354.049 1.95615 354.049 1.38037"
                    stroke="#282423"
                    strokeLinecap="round"
                  />
                  <path
                    d="M28.418 1.23918C35.0385 1.31883 41.6576 1.43015 48.2783 1.43015C49.2674 1.43015 50.2238 1.23918 51.2277 1.23918C51.9815 1.23918 54.0549 0.888068 54.5908 1.33466C55.1494 1.80021 56.949 1.33694 57.678 1.47258C58.6525 1.65388 59.6048 1.62111 60.5956 1.62111C62.4754 1.62111 64.3805 1.43015 66.229 1.43015C68.0045 1.43015 69.6395 1.04822 71.3851 1.04822C73.2346 1.04822 75.0841 1.04822 76.9337 1.04822C80.8767 1.04822 84.8198 1.04822 88.7629 1.04822C90.825 1.04822 92.6199 1.43014 94.6828 1.43014C96.9364 1.43014 99.1279 1.81207 101.367 1.81207C103.759 1.81207 105.872 1.75516 108.146 1.24979C109.934 0.852462 111.923 1.04821 113.779 1.04821C117.87 1.04821 121.826 1.43014 125.895 1.43014C129.863 1.43014 133.831 1.43014 137.798 1.43014C139.102 1.43014 140.556 1.22673 141.841 1.44075C142.58 1.56407 143.651 1.46607 144.334 1.76964C144.965 2.05027 146.15 1.81207 146.827 1.81207C148.133 1.81207 149.372 1.43014 150.636 1.43014C153.073 1.43014 155.456 1.04821 157.882 1.04821C160.24 1.04821 162.599 1.04821 164.958 1.04821C166.898 1.04821 168.776 1.43014 170.687 1.43014C172.819 1.43014 174.952 1.43014 177.084 1.43014C181.19 1.43014 185.296 1.43014 189.401 1.43014C197.688 1.43014 205.909 1.23917 214.227 1.23917C222.357 1.23917 230.514 1.43014 238.67 1.43014"
                    stroke="#282423"
                    strokeLinecap="round"
                  />
                  <path
                    d="M239.052 1.43027C242.87 1.43027 246.487 1.04834 250.319 1.04834C252.292 1.04834 254.266 1.04834 256.239 1.04834C258.486 1.04834 260.671 1.43027 262.923 1.43027C265.348 1.43027 267.665 1.04834 270.084 1.04834C272.662 1.04834 275.24 1.04834 277.818 1.04834C278.949 1.04834 280.022 1.43027 281.149 1.43027C282.267 1.43027 283.384 1.43027 284.502 1.43027C287.23 1.43027 289.864 1.8122 292.565 1.8122C303.969 1.8122 315.159 1.2393 326.557 1.2393C335.715 1.2393 344.88 1.04833 354.013 1.04833"
                    stroke="#282423"
                    strokeLinecap="round"
                  />
                  <path
                    d="M141.248 422.062C142.503 422.307 143.809 422.001 145.071 422.001C145.866 422.001 146.666 421.94 147.466 421.94C148.293 421.94 149.104 422.001 149.929 422.001C152.221 422.001 154.5 422.062 156.791 422.062C157.627 422.062 158.501 422.111 159.335 422.187C160.344 422.279 161.364 422.244 162.38 422.244C164.087 422.244 165.759 422.001 167.462 422.001C169.529 422.001 171.592 422.062 173.66 422.062C174.94 422.062 176.203 422.244 177.483 422.244C179.664 422.244 181.845 422.244 184.026 422.244C184.861 422.244 185.696 422.244 186.53 422.244C186.867 422.244 187.621 422.367 187.897 422.184"
                    stroke="#282423"
                    strokeLinecap="round"
                  />
                  <path
                    d="M188.042 421.959C188.642 421.34 189.093 420.785 189.82 420.301C190.506 419.843 191.333 419.277 191.868 418.642C192.333 418.092 193.117 417.608 193.483 416.984C193.764 416.507 194.503 415.953 194.968 415.694C195.623 415.331 196.017 414.481 196.605 414.057C196.921 413.83 197.09 413.461 197.407 413.201C197.67 412.986 197.902 412.556 198.209 412.421C198.431 412.323 199.003 411.735 199.142 411.521C199.291 411.29 199.711 410.988 199.944 410.816C200.404 410.478 200.886 410.22 201.31 409.819C201.469 409.668 201.751 409.612 201.873 409.429C201.988 409.257 202.178 409.026 202.334 408.887C202.817 408.457 203.293 408.054 203.797 407.662C204.015 407.493 204.249 407.287 204.431 407.082C204.696 406.784 205.187 406.598 205.407 406.296C205.687 405.912 206.133 405.696 206.431 405.332C206.677 405.031 206.973 404.744 207.255 404.497C207.715 404.094 208.422 403.421 208.724 402.893C208.794 402.769 209.331 402.307 209.45 402.264C209.854 402.117 210.119 401.667 210.48 401.435C211.16 400.998 211.789 400.358 212.376 399.771C212.616 399.532 213.147 399.263 213.309 398.98C213.385 398.846 213.704 398.532 213.851 398.449C214.248 398.222 214.467 397.674 214.87 397.473"
                    stroke="#282423"
                    strokeLinecap="round"
                  />
                  <path
                    d="M141.898 65.6909C141.898 66.9313 141.703 68.1371 141.703 69.3763C141.703 70.3085 141.703 71.2407 141.703 72.1729C141.703 73.338 141.411 74.481 141.411 75.6415C141.411 76.5845 141.411 77.5275 141.411 78.4705C141.411 79.5111 141.411 80.5517 141.411 81.5923C141.411 82.6655 141.216 83.7103 141.216 84.7628C141.216 86.5807 141.313 88.4355 141.313 90.2258C141.313 91.102 141.313 91.9782 141.313 92.8544C141.313 93.366 141.411 93.9032 141.411 94.4315C141.411 94.8964 141.571 95.7921 141.389 96.2254C141.211 96.6472 141.216 97.2039 141.216 97.6671C141.216 98.2513 141.118 98.8067 141.118 99.3959C141.118 100.37 141.118 101.343 141.118 102.317C141.118 106.411 141.021 110.49 141.021 114.566"
                    stroke="#282423"
                    strokeLinecap="round"
                  />
                  <path
                    d="M141.021 114.761C141.195 115.673 141.411 116.397 141.411 117.346C141.411 118.245 141.216 119.062 141.216 119.953C141.216 120.539 141.021 121.125 141.021 121.73C141.021 122.282 140.903 122.751 140.831 123.291C140.71 124.202 140.923 125.118 140.923 126.023C140.923 128.515 140.728 130.957 140.728 133.437C140.728 135.521 140.923 137.621 140.923 139.735C140.923 144.5 140.826 149.324 140.826 154.113C140.826 155.249 140.826 156.386 140.826 157.522C140.826 158.145 140.826 158.769 140.826 159.392C140.826 159.792 141.021 160.193 141.021 160.562C141.021 161.515 141.021 162.467 141.021 163.419C141.021 164.173 140.826 164.865 140.826 165.587"
                    stroke="#282423"
                    strokeLinecap="round"
                  />
                  <path
                    d="M140.923 165.879C140.923 166.773 140.923 167.667 140.923 168.562C140.923 168.791 140.858 169.138 140.972 169.342C141.046 169.475 141.021 169.634 141.021 169.781C141.021 170.086 141.205 170.338 141.216 170.637C141.232 171.092 141.411 171.503 141.411 171.971C141.411 172.332 141.411 172.693 141.411 173.055C141.411 173.907 141.411 174.76 141.411 175.613C141.411 176.386 141.456 177.165 141.319 177.921C141.242 178.343 141.275 178.774 141.21 179.195C141.153 179.568 141.021 179.943 141.021 180.317C141.021 181.855 140.826 183.384 140.826 184.902C140.826 187.991 140.728 191.032 140.728 194.115C140.728 196.068 140.728 198.021 140.728 199.974C140.728 201.489 140.726 203.136 141.021 204.608"
                    stroke="#282423"
                    strokeLinecap="round"
                  />
                  <path
                    d="M141.118 204.998C141.118 206.146 141.118 207.276 141.118 208.412C141.118 209.451 141.216 210.508 141.216 211.529C141.216 212.213 141.216 212.898 141.216 213.583C141.216 214.247 141.045 214.86 141.021 215.512C140.976 216.715 140.825 217.906 140.825 219.1C140.825 221.586 140.825 224.072 140.825 226.558C140.825 227.908 140.63 229.323 140.63 230.698C140.63 231.724 140.63 232.75 140.63 233.777"
                    stroke="#282423"
                    strokeLinecap="round"
                  />
                  <path
                    d="M140.63 233.875C140.63 235.302 140.825 236.626 140.825 238.069C140.825 239.272 140.728 240.495 140.728 241.679C140.728 242.933 140.63 244.237 140.63 245.516C140.63 247.055 140.825 248.581 140.825 250.117C140.825 253.342 141.021 256.488 141.021 259.721C141.021 261.217 140.825 262.657 140.825 264.16C140.825 265.622 140.728 267.049 140.728 268.506"
                    stroke="#282423"
                    strokeLinecap="round"
                  />
                  <path
                    d="M140.728 268.799C140.728 270.089 140.657 271.328 140.728 272.603C140.755 273.088 140.728 273.581 140.728 274.067C140.728 274.466 140.847 275.107 140.679 275.476C140.484 275.906 140.631 276.672 140.631 277.145C140.631 277.73 140.631 278.316 140.631 278.901C140.631 279.697 140.436 280.51 140.436 281.329C140.436 282.102 140.436 282.876 140.436 283.649C140.436 286.276 140.436 288.902 140.436 291.529C140.436 293.893 140.631 296.282 140.631 298.65"
                    stroke="#282423"
                    strokeLinecap="round"
                  />
                  <path
                    d="M140.63 298.846C140.63 300.305 140.606 301.685 140.918 303.089C141.025 303.573 140.923 304.204 140.923 304.699C140.923 305.348 141.021 306.024 141.021 306.699C141.021 309.693 141.216 312.712 141.216 315.717C141.216 317.442 141.216 319.168 141.216 320.893C141.216 321.608 141.216 322.324 141.216 323.039C141.216 323.696 141.021 324.415 141.021 325.109C141.021 326.011 141.021 326.912 141.021 327.814C141.021 328.725 140.826 329.694 140.826 330.594C140.826 331.537 140.826 332.48 140.826 333.423C140.826 333.983 140.904 334.608 140.728 335.136"
                    stroke="#282423"
                    strokeLinecap="round"
                  />
                  <path
                    d="M140.825 335.233C140.825 335.814 140.728 336.319 140.728 336.892C140.728 337.144 140.693 337.426 140.75 337.672C140.824 337.997 140.723 338.451 140.847 338.745C141.056 339.242 140.923 339.96 140.923 340.501C140.923 340.989 140.923 341.477 140.923 341.965C140.923 342.985 140.825 344.005 140.825 345.011C140.825 346.084 140.953 347.248 140.82 348.311C140.534 350.6 140.63 352.964 140.63 355.286C140.63 357.609 140.63 359.933 140.63 362.256"
                    stroke="#282423"
                    strokeLinecap="round"
                  />
                  <path
                    d="M140.728 362.354C140.728 364.565 140.631 366.826 140.631 369.063C140.631 369.721 140.631 370.378 140.631 371.036C140.631 371.701 140.826 372.27 140.826 372.938C140.826 374.035 140.826 375.131 140.826 376.228C140.826 381.455 141.021 386.592 141.021 391.815C141.021 392.804 141.118 393.766 141.118 394.763C141.118 395.937 141.279 397.262 141.026 398.4C140.902 398.961 141.021 399.673 141.021 400.248C141.021 400.742 140.923 401.166 140.923 401.668C140.923 402.99 140.923 404.313 140.923 405.635C140.923 406.887 140.978 408.228 140.707 409.418C140.546 410.121 140.548 410.899 140.457 411.618C140.4 412.066 140.436 412.533 140.436 412.984C140.436 413.667 140.436 414.35 140.436 415.033C140.436 415.818 140.473 416.585 140.539 417.369C140.586 417.934 140.529 418.672 140.652 419.228C140.761 419.715 140.826 420.239 140.826 420.74C140.826 421.05 140.688 422.134 140.923 422.252"
                    stroke="#282423"
                    strokeLinecap="round"
                  />
                  <path
                    d="M187.23 65.7803C187.35 74.5759 187.702 83.3562 187.23 92.0861C187.05 95.4137 186.975 98.7424 186.975 102.103C186.975 108.321 187.485 114.462 187.485 120.676C187.485 126.784 187.23 132.877 187.23 138.966C187.23 145.221 187.741 151.217 187.741 157.468C187.741 164.789 187.741 172.11 187.741 179.432C187.741 183.282 187.741 187.131 187.741 190.981C187.741 195.368 187.936 199.814 186.989 204.077C186.658 205.563 186.975 207.534 186.975 209.044C186.975 210.793 186.975 212.543 186.975 214.293C186.975 218.951 186.719 223.566 186.719 228.212C186.719 231.885 186.464 235.733 186.464 239.507C186.464 240.862 186.719 242.223 186.719 243.536C186.719 245.015 186.924 247.046 187.244 248.488C187.873 251.32 187.485 254.728 187.485 257.697C187.485 261.267 187.996 264.625 187.996 268.196C187.996 271.852 187.996 275.508 187.996 279.164C187.996 282.883 187.626 286.562 187.485 290.217C187.202 297.577 187.485 305.014 187.485 312.38C187.485 321.427 186.975 330.399 186.975 339.452C186.975 355.494 186.975 371.537 186.975 387.58C186.975 393.92 187.23 400.316 187.23 406.607C187.23 411.814 188.043 416.547 188.043 421.772"
                    stroke="#282423"
                    strokeLinecap="round"
                  />
                  <path
                    d="M214.813 65.7803C214.813 67.3127 214.813 68.845 214.813 70.3774C214.813 71.8201 215.165 73.7789 214.614 75.0881C214.355 75.7027 214.616 76.6233 214.543 77.2731C214.454 78.0754 214.302 78.7418 214.302 79.5717C214.302 81.3556 214.047 83.1953 214.047 85.0343C214.047 92.6027 214.557 100.088 214.557 107.665C214.557 114.689 214.557 121.712 214.557 128.736C214.557 131.706 214.557 134.676 214.557 137.646C214.557 140.644 214.345 143.939 215.012 146.854C215.659 149.686 215.068 153.331 215.068 156.247C215.068 158.064 214.557 159.954 214.557 161.809C214.557 163.469 214.557 165.13 214.557 166.79C214.557 174.343 214.557 181.896 214.557 189.449C214.557 196.236 214.557 203.023 214.557 209.81C214.557 212.922 214.557 216.034 214.557 219.146C214.557 222.169 214.047 225.06 214.047 228.071C214.047 231.122 213.491 234.932 214.359 237.861C215.418 241.436 214.424 245.417 215.082 249.041C215.791 252.938 215.834 257.191 215.834 261.173C215.834 264.706 215.834 268.239 215.834 271.772C215.834 276.511 215.834 281.25 215.834 285.989C215.834 288.256 215.646 290.553 215.579 292.828C215.528 294.577 215.398 296.571 215.082 298.305C214.806 299.823 215.068 301.642 215.068 303.186C215.068 305.03 214.813 306.866 214.813 308.677C214.813 312.442 214.557 316.128 214.557 319.9C214.557 346.055 215.043 371.187 215.043 397.272"
                    stroke="#282423"
                    strokeLinecap="round"
                  />
                  <path
                    d="M334.043 19.772L327.043 26.272V33.272V39.272L326.543 46.272V55.272V62.272L327.043 65.272L330.043 62.272L331.043 60.272L333.543 58.772L341.043 52.272L347.543 46.772L354.043 40.772L353.543 33.772L354.043 25.772L353.543 17.272V10.772L354.043 2.27197L349.043 6.27197L345.043 9.77197L339.543 14.272L334.043 19.772Z"
                    fill="#282423"
                    stroke="#282423"
                  />
                  <path
                    d="M214.543 66.272H187.543L188.043 76.772V87.272L187.543 102.772L188.043 117.772L187.543 132.772L188.043 147.272V161.272V182.272L188.543 196.272L187.043 204.772V218.772V232.272V243.272L188.043 253.772L188.543 267.272V282.272L188.043 289.272V305.772V318.272L187.543 330.772V352.772V364.272V378.272V390.772V402.272L188.043 412.272L188.543 420.772L194.543 415.272L201.543 409.272L207.543 403.272L214.543 397.272V390.772V381.272V370.772L214.043 356.272V345.772V335.772V324.772V316.272L214.543 306.272V298.272L215.043 289.772L215.543 280.272V270.772V260.772L215.043 252.272L214.543 245.772L214.043 238.772L213.543 234.772V229.772V223.772L214.043 219.272V211.772V201.272V190.272V178.272V168.272V160.272L214.543 153.772V146.772L214.043 142.772V136.272V122.772V111.772V101.772L213.543 91.772L214.043 79.772V75.272L214.543 66.272Z"
                    fill="#282423"
                    stroke="#282423"
                  />
                </svg>